<?xml version="1.0" encoding="UTF-8" standalone="no"?>
<!-- Created with Inkscape (http://www.inkscape.org/) -->

<svg
   xmlns:dc="http://purl.org/dc/elements/1.1/"
   xmlns:cc="http://creativecommons.org/ns#"
   xmlns:rdf="http://www.w3.org/1999/02/22-rdf-syntax-ns#"
   xmlns:svg="http://www.w3.org/2000/svg"
   xmlns="http://www.w3.org/2000/svg"
   xmlns:sodipodi="http://sodipodi.sourceforge.net/DTD/sodipodi-0.dtd"
   xmlns:inkscape="http://www.inkscape.org/namespaces/inkscape"
   id="svg2"
   version="1.1"
   inkscape:version="0.48.2 r9819"
   width="743.75"
   height="1052.5"
   xml:space="preserve"
   sodipodi:docname="job_289 ExpressPCB.pdf"><metadata
     id="metadata8"><rdf:RDF><cc:Work
         rdf:about=""><dc:format>image/svg+xml</dc:format><dc:type
           rdf:resource="http://purl.org/dc/dcmitype/StillImage" /><dc:title></dc:title></cc:Work></rdf:RDF></metadata><defs
     id="defs6" /><sodipodi:namedview
     pagecolor="#ffffff"
     bordercolor="#666666"
     borderopacity="1"
     objecttolerance="10"
     gridtolerance="10"
     guidetolerance="10"
     inkscape:pageopacity="0"
     inkscape:pageshadow="2"
     inkscape:window-width="1231"
     inkscape:window-height="756"
     id="namedview4"
     showgrid="false"
     inkscape:zoom="1.7938242"
     inkscape:cx="260.38136"
     inkscape:cy="838.4322"
     inkscape:window-x="49"
     inkscape:window-y="0"
     inkscape:window-maximized="1"
     inkscape:current-layer="g10" /><g
     id="g10"
     inkscape:groupmode="layer"
     inkscape:label="job_289 ExpressPCB"
     transform="matrix(1.25,0,0,-1.25,0,1052.5)"><path
       d="m 158.52034,584.30576 25.2,72 m -25.2,-43.2 19.68,50.4 m 5.52,-7.2 7.2,0 m -32.4,-14.4 14.4,28.8 m 5.28,-7.2 12.72,0 m -32.4,7.2 8.88,7.2 m 5.52,-7.2 18,0 m -32.4,18 8.88,-3.6 m -68.400001,-127.2 10.800001,-0.72 m 12.72,21.6 -10.8,0 m -1.92,-10.56 0,3.36 m -14.400001,7.2 -14.16,-14.4 m 28.560001,-7.2 0,5.52 m 12.72,1.68 0,-7.2 m -23.520001,13.92 10.800001,0.48 m 12.72,-14.4 -12.72,0 m 48.72,21.6 -10.8,0 m -97.200001,120.72 0,82.8 m 90.000001,-210.72 0,21.6 m 93.6,70.32 -7.2,0 m -127.920001,-99.12 -17.76,0 m 50.160001,7.2 -21.6,0 m 21.6,201.6 0,16.32 m -36.000001,-210.72 10.800001,0 m 144,203.52 0,7.2 m -151.200001,-202.8 10.800001,-0.72 m 12.72,21.6 -10.8,0 m -1.92,-10.56 0,3.36 m -16.080001,7.2 -12.48,-14.4 m 28.560001,-7.2 0,5.52 m 12.72,1.68 0,-7.2 m -23.520001,13.92 10.800001,0.48 m 12.72,-14.4 -12.72,0 m 48.72,21.6 -10.8,0 m -7.2,-36 7.2,0 m -7.2,28.8 0,21.6 m 0,-21.6 0,-7.2 m -41.520001,0 -17.76,0 m 50.160001,7.2 -21.6,0 m -16.080001,7.2 12.480001,0 m 25.2,-36 0,43.2 m -32.400001,0.72 10.800001,-0.72 m 12.72,21.6 -10.8,0 m -1.92,-10.56 0,3.36 m -16.080001,7.2 -12.48,-14.4 m 28.560001,-7.2 0,5.52 m 12.72,1.68 0,-7.2 m -23.520001,13.92 10.800001,0.48 m 12.72,-14.4 -12.72,0 m 48.72,21.6 -10.8,0 m -7.2,-36 7.2,0 m -7.2,28.8 0,21.6 m 0,-21.6 0,-7.2 m -41.520001,0 -17.76,0 m 50.160001,7.2 -21.6,0 m -16.080001,7.2 12.480001,0 m 25.2,-21.6 0,28.8 m -32.400001,0.72 10.800001,-0.72 m 12.72,21.6 -10.8,0 m -1.92,-10.56 0,3.36 m -14.400001,7.2 -14.16,-14.4 m 28.560001,-7.2 0,5.52 m 12.72,1.68 0,-7.2 m -23.520001,13.92 10.800001,0.48"
       style="fill:none;stroke:#000000;stroke-width:2.16000009;stroke-linecap:round;stroke-linejoin:round;stroke-miterlimit:10;stroke-opacity:1;stroke-dasharray:none"
       id="path12"
       inkscape:connector-curvature="0" /><path
       d="m 122.52034,643.58576 -12.72,0 m 48.72,21.6 -10.8,0 m -7.2,-36 7.2,0 m -7.2,28.8 0,21.6 m 0,-21.6 0,-7.2 m -41.520001,0 -17.76,0 m 50.160001,7.2 -21.6,0 m -14.400001,7.2 10.800001,0 m 25.2,-21.6 0,28.8 m -32.400001,0.72 10.800001,-0.72 m 12.72,21.6 -10.8,0 m -1.92,-10.56 0,3.36 m -14.400001,7.2 -14.16,-14.4 m 28.560001,-7.2 0,5.52 m 12.72,1.68 0,-7.2 m -23.520001,13.92 10.800001,0.48 m 12.72,-14.4 -12.72,0 m 48.72,21.84 -10.8,-0.24 m -7.2,-36 7.2,0 m -7.2,28.8 0,21.6 m 0,-21.6 0,-7.2 m -41.520001,0 -17.76,0 m 50.160001,7.2 -21.6,0 m -14.400001,7.2 10.800001,0 m 25.2,-21.6 0,28.8 m -32.400001,0.72 10.800001,-0.72 m 12.72,21.6 -10.8,0 m -1.92,-10.56 0,3.36 m -14.400001,7.2 -14.16,-14.4 m 28.560001,-7.2 0,5.52 m 12.72,1.68 0,-7.2 m -23.520001,13.92 10.800001,0.48 m 12.72,-14.4 -12.72,0 m 48.72,21.84 -10.8,-0.24 m -7.2,-36 7.2,0 m -7.2,28.8 0,21.6 m 0,-21.6 0,-7.2 m -41.520001,0 -17.76,0 m 50.160001,7.2 -21.6,0 m -14.400001,7.2 10.800001,0 m 25.2,-21.6 0,28.8 m -32.400001,0.72 10.800001,-0.72 m 12.72,21.6 -10.8,0 m -1.92,-10.56 0,3.36 m -14.400001,7.2 -14.16,-14.4 m 28.560001,-7.2 0,5.52 m 12.72,1.68 0,-7.2 m -23.520001,13.92 10.800001,0.48 m 12.72,-14.4 -12.72,0 m 48.72,21.84 -10.8,-0.24 m -7.2,-36 7.2,0 m -7.2,28.8 0,21.6 m 0,-21.6 0,-7.2 m -41.520001,0 -17.76,0 m 50.160001,7.2 -21.6,0 m -14.400001,7.2 10.800001,0 m 25.2,-21.6 0,28.8 m 0,14.4 0,-14.4 m 66.72,-144 0,7.2 m -99.120001,137.52 10.800001,-0.72 m 12.72,21.6 -10.8,0 m -1.92,-10.56 0,3.36 m -14.400001,7.2 -14.16,-14.4 m 28.560001,-7.2 0,5.52"
       style="fill:none;stroke:#000000;stroke-width:2.16000009;stroke-linecap:round;stroke-linejoin:round;stroke-miterlimit:10;stroke-opacity:1;stroke-dasharray:none"
       id="path14"
       inkscape:connector-curvature="0" /><path
       d="m 122.52034,765.98576 0,-7.2 m -23.520001,13.92 10.800001,0.48 m 12.72,-14.4 -12.72,0 m 48.72,21.84 -10.8,-0.24 m -7.2,-7.2 7.2,0 m -7.2,0 0,-7.2 m -41.520001,0 -17.76,0 m 50.160001,7.2 -21.6,0 m -14.400001,7.2 10.800001,0 m -55.680001,-138.48 5.28,0 m 25.44,-48.72 -7.44,0 m -23.28,63.12 16.08,0 m 14.64,-5.52 -7.44,1.92 m -23.28,18 23.28,0 m 7.44,37.68 -7.44,0 m 7.44,28.8 -7.44,0 m -23.28,-59.28 16.08,0 m -16.08,14.4 5.28,0 m 75.600001,97.2 -66.480001,0 m 75.600001,-45.12 7.2,0 m -97.200001,-59.28 10.8,0 m 19.92,80.88 -7.44,0 m -23.28,-102.48 23.28,0 m 7.44,-41.52 -7.44,0 m -23.28,27.12 10.8,0 m 19.92,-84.72 -7.44,0 m 93.600001,113.52 23.52,0 m -32.4,39.6 14.4,-25.2 m -5.52,-7.2 23.52,0 m -32.4,61.2 19.68,-46.8 m -5.28,-7.2 18,0 m 23.28,90 0,-10.8 m -36,-72 12.72,0 m -32.4,75.6 25.2,-68.4 7.2,0 m 43.2,36 -27.12,0"
       style="fill:none;stroke:#000000;stroke-width:2.16000009;stroke-linecap:round;stroke-linejoin:round;stroke-miterlimit:10;stroke-opacity:1;stroke-dasharray:none"
       id="path16"
       inkscape:connector-curvature="0" /><path
       d="m 90.120339,775.10576 -14.64,0 0,-18.24 14.64,0 0,18.24 z"
       style="fill:#000000;fill-opacity:1;fill-rule:nonzero;stroke:none"
       id="path18"
       inkscape:connector-curvature="0" /><path
       d="m 234.12034,735.50576 -36,0 m 8.88,7.2 0,39.6 m 32.4,-10.8 10.8,0 m 0,-46.8 0,-10.8 m -109.68,59.28 0,12.72 m 50.4,-64.8 7.2,0 m 52.08,68.4 -52.08,0 m -57.6,0 0,-3.6 m 57.6,-64.8 0,14.4 m 28.8,-72 0,-41.52 m 7.2,48.72 -21.6,0 0,-48.72 m 21.6,55.92 7.2,0 m -176.400001,111.6 -7.2,-7.2 m 183.600001,-104.4 0,-55.92"
       style="fill:none;stroke:#000000;stroke-width:2.16000009;stroke-linecap:round;stroke-linejoin:round;stroke-miterlimit:10;stroke-opacity:1;stroke-dasharray:none"
       id="path20"
       inkscape:connector-curvature="0" /><path
       d="m 90.120339,746.30576 -14.64,0 0,-18.24 14.64,0 0,18.24 z"
       style="fill:#000000;fill-opacity:1;fill-rule:nonzero;stroke:none"
       id="path22"
       inkscape:connector-curvature="0" /><path
       d="m 182.28034,556.70576 -0.48,0.48 0,1.44 0.48,0.48 2.4,0 0.72,-0.48 0,-1.92 -1.2,0 0,0.48 m 1.2,-1.68 -3.6,0 2.4,-2.4 m -2.4,0 3.6,0 m -3.6,-1.2 0,-1.92 0.48,-0.48 2.4,0 0.72,0.48 0,1.92 m -3.6,-0.48 3.6,0"
       style="fill:none;stroke:#000000;stroke-width:0.72000003;stroke-linecap:round;stroke-linejoin:round;stroke-miterlimit:10;stroke-opacity:1;stroke-dasharray:none"
       id="path24"
       inkscape:connector-curvature="0" /><path
       d="m 234.12034,713.90576 16.08,0"
       style="fill:none;stroke:#000000;stroke-width:2.16000009;stroke-linecap:round;stroke-linejoin:round;stroke-miterlimit:10;stroke-opacity:1;stroke-dasharray:none"
       id="path26"
       inkscape:connector-curvature="0" /><path
       d="m 196.20034,556.70576 0,2.4 1.2,0 0,-1.92 0.72,-0.48 0.96,0 0.72,0.48 0,1.44 -0.72,0.48 m -1.68,-3.6 1.2,0 1.2,-1.2 -1.2,-1.2 -1.2,0 m 31.2,6 -2.4,0 -1.2,-1.2 1.2,-1.2 2.4,0 m -1.2,2.4 0,-2.4 m 0.48,-1.2 -2.4,0 -0.48,-0.48 0,-1.44 0.48,-0.48 2.4,0 0.72,0.48 0,1.44 -0.72,0.48 -2.4,-2.4"
       style="fill:none;stroke:#000000;stroke-width:0.72000003;stroke-linecap:round;stroke-linejoin:round;stroke-miterlimit:10;stroke-opacity:1;stroke-dasharray:none"
       id="path28"
       inkscape:connector-curvature="0" /><path
       d="m 234.12034,742.70576 23.28,0 m -59.28,-7.2 0,54 m 36,-68.4 -36,-18"
       style="fill:none;stroke:#000000;stroke-width:2.16000009;stroke-linecap:round;stroke-linejoin:round;stroke-miterlimit:10;stroke-opacity:1;stroke-dasharray:none"
       id="path30"
       inkscape:connector-curvature="0" /><path
       d="m 214.20034,559.10576 -2.4,0 -1.2,-1.2 1.2,-1.2 2.4,0 m -1.2,2.4 0,-2.4 m -1.92,-1.68 -0.48,-0.72 3.6,0 m 0,0.72 0,-1.44"
       style="fill:none;stroke:#000000;stroke-width:0.72000003;stroke-linecap:round;stroke-linejoin:round;stroke-miterlimit:10;stroke-opacity:1;stroke-dasharray:none"
       id="path32"
       inkscape:connector-curvature="0" /><path
       d="m 198.12034,703.10576 0,-81.12"
       style="fill:none;stroke:#000000;stroke-width:2.16000009;stroke-linecap:round;stroke-linejoin:round;stroke-miterlimit:10;stroke-opacity:1;stroke-dasharray:none"
       id="path34"
       inkscape:connector-curvature="0" /><path
       d="m 243.00034,559.10576 -2.4,0 -1.2,-1.2 1.2,-1.2 2.4,0 m -1.2,2.4 0,-2.4 m -1.92,-1.2 -0.48,-0.48 0,-1.44 0.48,-0.48 0.72,0 0.72,0.48 0,1.44 0.48,0.48 1.2,0 0,-2.4"
       style="fill:none;stroke:#000000;stroke-width:0.72000003;stroke-linecap:round;stroke-linejoin:round;stroke-miterlimit:10;stroke-opacity:1;stroke-dasharray:none"
       id="path36"
       inkscape:connector-curvature="0" /><path
       d="m 250.20034,753.50576 -18,0 m -48.48,-131.52 0,-14.4 m 14.4,7.2 0,-7.2 m -14.4,0 0,-14.4 m 14.4,7.2 0,-7.2 m 59.28,149.52 0,39.6 m -43.2,-10.8 10.8,0 m -26.88,-192.72 0,-14.4 m 28.8,57.6 0,-7.2 m -14.4,-7.2 0,-7.2 m 19.68,153.12 0,25.2 m 9.12,-185.52 0,-7.2"
       style="fill:none;stroke:#000000;stroke-width:2.16000009;stroke-linecap:round;stroke-linejoin:round;stroke-miterlimit:10;stroke-opacity:1;stroke-dasharray:none"
       id="path38"
       inkscape:connector-curvature="0" /><path
       d="m 266.52034,796.70576 -230.400001,0"
       style="fill:none;stroke:#000000;stroke-width:0.72000003;stroke-linecap:round;stroke-linejoin:round;stroke-miterlimit:10;stroke-opacity:1;stroke-dasharray:none"
       id="path40"
       inkscape:connector-curvature="0" /><path
       d="m 226.92034,614.78576 0,-7.2 m -14.4,-7.2 0,-7.2 m 28.8,-7.2 0,-7.2 m -57.6,14.4 0,-14.4"
       style="fill:none;stroke:#000000;stroke-width:2.16000009;stroke-linecap:round;stroke-linejoin:round;stroke-miterlimit:10;stroke-opacity:1;stroke-dasharray:none"
       id="path42"
       inkscape:connector-curvature="0" /><path
       d="m 36.120339,796.70576 0,-252"
       style="fill:none;stroke:#000000;stroke-width:0.72000003;stroke-linecap:round;stroke-linejoin:round;stroke-miterlimit:10;stroke-opacity:1;stroke-dasharray:none"
       id="path44"
       inkscape:connector-curvature="0" /><path
       d="m 250.20034,771.50576 0,10.8"
       style="fill:none;stroke:#000000;stroke-width:2.16000009;stroke-linecap:round;stroke-linejoin:round;stroke-miterlimit:10;stroke-opacity:1;stroke-dasharray:none"
       id="path46"
       inkscape:connector-curvature="0" /><path
       d="m 36.120339,544.70576 230.400001,0 0,252"
       style="fill:none;stroke:#000000;stroke-width:0.72000003;stroke-linecap:round;stroke-linejoin:round;stroke-miterlimit:10;stroke-opacity:1;stroke-dasharray:none"
       id="path48"
       inkscape:connector-curvature="0" /><path
       d="m 241.32034,593.18576 0,14.4 m -28.8,0 0,14.4 m 14.4,-57.6 0,14.4 m 14.4,43.2 0,-14.4 m -43.2,-7.2 0,7.2 m 0,-28.8 0,14.4 m 28.8,14.4 0,-14.4 m -14.4,-28.8 0,14.4 m -28.8,-14.4 0,7.2 m 57.6,-7.2 0,14.4 m -14.4,14.4 0,-14.4 m -14.4,14.4 0,-14.4 m -28.8,0 0,-7.2"
       style="fill:none;stroke:#000000;stroke-width:2.16000009;stroke-linecap:round;stroke-linejoin:round;stroke-miterlimit:10;stroke-opacity:1;stroke-dasharray:none"
       id="path50"
       inkscape:connector-curvature="0" /><path
       d="m 257.40034,559.10576 -2.4,0 -1.2,-1.2 1.2,-1.2 2.4,0 m -1.2,2.4 0,-2.4 m -1.92,-1.2 -0.48,-0.48 0,-1.44 0.48,-0.48 0.72,0 0.72,0.48 0,0.72 m 0,-0.72 0.48,-0.48 0.48,0 0.72,0.48 0,1.44 -0.72,0.48"
       style="fill:none;stroke:#000000;stroke-width:0.72000003;stroke-linecap:round;stroke-linejoin:round;stroke-miterlimit:10;stroke-opacity:1;stroke-dasharray:none"
       id="path52"
       inkscape:connector-curvature="0" /><path
       d="m 234.12034,685.10576 21.6,0 0,-63.12 m 0,-28.8 0,-14.4 m 0,14.4 0,14.4 m 0,14.4 0,-14.4 m 0,-43.2 0,14.4 m -108,-7.2 36,0 m -127.920001,120.72 18,73.68"
       style="fill:none;stroke:#000000;stroke-width:2.16000009;stroke-linecap:round;stroke-linejoin:round;stroke-miterlimit:10;stroke-opacity:1;stroke-dasharray:none"
       id="path54"
       inkscape:connector-curvature="0" /><path
       d="m 90.120339,717.50576 -14.64,0 0,-18.24 14.64,0 0,18.24 z"
       style="fill:#000000;fill-opacity:1;fill-rule:nonzero;stroke:none"
       id="path56"
       inkscape:connector-curvature="0" /><path
       d="m 90.120339,688.70576 -14.64,0 0,-18.24 14.64,0 0,18.24 z"
       style="fill:#000000;fill-opacity:1;fill-rule:nonzero;stroke:none"
       id="path58"
       inkscape:connector-curvature="0" /><path
       d="m 90.120339,659.90576 -14.64,0 0,-18.24 14.64,0 0,18.24 z"
       style="fill:#000000;fill-opacity:1;fill-rule:nonzero;stroke:none"
       id="path60"
       inkscape:connector-curvature="0" /><path
       d="m 90.120339,631.10576 -14.64,0 0,-18.24 14.64,0 0,18.24 z"
       style="fill:#000000;fill-opacity:1;fill-rule:nonzero;stroke:none"
       id="path62"
       inkscape:connector-curvature="0" /><path
       d="m 140.52034,789.50576 57.6,0"
       style="fill:none;stroke:#000000;stroke-width:2.16000009;stroke-linecap:round;stroke-linejoin:round;stroke-miterlimit:10;stroke-opacity:1;stroke-dasharray:none"
       id="path64"
       inkscape:connector-curvature="0" /><path
       d="m 90.120339,602.30576 -14.64,0 0,-18.24 14.64,0 0,18.24 z"
       style="fill:#000000;fill-opacity:1;fill-rule:nonzero;stroke:none"
       id="path66"
       inkscape:connector-curvature="0" /><path
       d="m 90.120339,573.50576 -14.64,0 0,-18.24 14.64,0 0,18.24 z"
       style="fill:#000000;fill-opacity:1;fill-rule:nonzero;stroke:none"
       id="path68"
       inkscape:connector-curvature="0" /><path
       d="m 55.800339,641.90576 18,-77.52 m -12.48,84.72 12.48,-55.92 m -7.2,63.12 7.2,-34.32 m 0,30.72 0,10.8 m 7.44,16.08 -7.44,0 m 0,-8.88 0,8.88 m 0,28.8 -7.2,-30.48 m 7.2,59.28 -12.48,-52.08 m 70.080001,-113.52 0,-21.6 -80.880001,0 0,84.72"
       style="fill:none;stroke:#000000;stroke-width:2.16000009;stroke-linecap:round;stroke-linejoin:round;stroke-miterlimit:10;stroke-opacity:1;stroke-dasharray:none"
       id="path70"
       inkscape:connector-curvature="0" /><path
       d="m 196.14034,621.92576 c 0,-1.126 0.914,-2.04 2.04,-2.04 1.126,0 2.04,0.914 2.04,2.04 0,1.126 -0.914,2.04 -2.04,2.04 -1.126,0 -2.04,-0.914 -2.04,-2.04"
       style="fill:#000000;fill-opacity:1;fill-rule:nonzero;stroke:none"
       id="path72"
       inkscape:connector-curvature="0" /><path
       d="m 253.74034,621.92576 c 0,-1.126 0.914,-2.04 2.04,-2.04 1.126,0 2.04,0.914 2.04,2.04 0,1.126 -0.914,2.04 -2.04,2.04 -1.126,0 -2.04,-0.914 -2.04,-2.04"
       style="fill:#000000;fill-opacity:1;fill-rule:nonzero;stroke:none"
       id="path74"
       inkscape:connector-curvature="0" /><path
       d="m 237.42034,771.44576 c 0,-1.126 0.914,-2.04 2.04,-2.04 1.126,0 2.04,0.914 2.04,2.04 0,1.126 -0.914,2.04 -2.04,2.04 -1.126,0 -2.04,-0.914 -2.04,-2.04"
       style="fill:#000000;fill-opacity:1;fill-rule:nonzero;stroke:none"
       id="path76"
       inkscape:connector-curvature="0" /><path
       d="m 230.22034,778.64576 c 0,-1.126 0.914,-2.04 2.04,-2.04 1.126,0 2.04,0.914 2.04,2.04 0,1.126 -0.914,2.04 -2.04,2.04 -1.126,0 -2.04,-0.914 -2.04,-2.04"
       style="fill:#000000;fill-opacity:1;fill-rule:nonzero;stroke:none"
       id="path78"
       inkscape:connector-curvature="0" /><path
       d="m 236.76034,644.54576 -5.52,0 0,-5.52 5.52,0 0,5.52 z"
       style="fill:#000000;fill-opacity:1;fill-rule:nonzero;stroke:none"
       id="path80"
       inkscape:connector-curvature="0" /><path
       d="m 231.42034,649.04576 c 0,-1.524 1.236,-2.76 2.76,-2.76 1.524,0 2.76,1.236 2.76,2.76 0,1.524 -1.236,2.76 -2.76,2.76 -1.524,0 -2.76,-1.236 -2.76,-2.76"
       style="fill:#000000;fill-opacity:1;fill-rule:nonzero;stroke:none"
       id="path82"
       inkscape:connector-curvature="0" /><path
       d="m 231.42034,656.24576 c 0,-1.523 1.236,-2.76 2.76,-2.76 1.524,0 2.76,1.237 2.76,2.76 0,1.524 -1.236,2.76 -2.76,2.76 -1.524,0 -2.76,-1.236 -2.76,-2.76"
       style="fill:#000000;fill-opacity:1;fill-rule:nonzero;stroke:none"
       id="path84"
       inkscape:connector-curvature="0" /><path
       d="m 231.42034,663.44576 c 0,-1.524 1.236,-2.76 2.76,-2.76 1.524,0 2.76,1.236 2.76,2.76 0,1.524 -1.236,2.76 -2.76,2.76 -1.524,0 -2.76,-1.236 -2.76,-2.76"
       style="fill:#000000;fill-opacity:1;fill-rule:nonzero;stroke:none"
       id="path86"
       inkscape:connector-curvature="0" /><path
       d="m 231.42034,670.64576 c 0,-1.524 1.236,-2.76 2.76,-2.76 1.524,0 2.76,1.236 2.76,2.76 0,1.524 -1.236,2.76 -2.76,2.76 -1.524,0 -2.76,-1.236 -2.76,-2.76"
       style="fill:#000000;fill-opacity:1;fill-rule:nonzero;stroke:none"
       id="path88"
       inkscape:connector-curvature="0" /><path
       d="m 231.42034,677.84576 c 0,-1.523 1.236,-2.76 2.76,-2.76 1.524,0 2.76,1.237 2.76,2.76 0,1.524 -1.236,2.76 -2.76,2.76 -1.524,0 -2.76,-1.236 -2.76,-2.76"
       style="fill:#000000;fill-opacity:1;fill-rule:nonzero;stroke:none"
       id="path90"
       inkscape:connector-curvature="0" /><path
       d="m 231.42034,685.04576 c 0,-1.524 1.236,-2.76 2.76,-2.76 1.524,0 2.76,1.236 2.76,2.76 0,1.524 -1.236,2.76 -2.76,2.76 -1.524,0 -2.76,-1.236 -2.76,-2.76"
       style="fill:#000000;fill-opacity:1;fill-rule:nonzero;stroke:none"
       id="path92"
       inkscape:connector-curvature="0" /><path
       d="m 231.42034,692.24576 c 0,-1.523 1.236,-2.76 2.76,-2.76 1.524,0 2.76,1.237 2.76,2.76 0,1.524 -1.236,2.76 -2.76,2.76 -1.524,0 -2.76,-1.236 -2.76,-2.76"
       style="fill:#000000;fill-opacity:1;fill-rule:nonzero;stroke:none"
       id="path94"
       inkscape:connector-curvature="0" /><path
       d="m 231.42034,699.44576 c 0,-1.523 1.236,-2.76 2.76,-2.76 1.524,0 2.76,1.237 2.76,2.76 0,1.524 -1.236,2.76 -2.76,2.76 -1.524,0 -2.76,-1.236 -2.76,-2.76"
       style="fill:#000000;fill-opacity:1;fill-rule:nonzero;stroke:none"
       id="path96"
       inkscape:connector-curvature="0" /><path
       d="m 231.42034,706.64576 c 0,-1.524 1.236,-2.76 2.76,-2.76 1.524,0 2.76,1.236 2.76,2.76 0,1.524 -1.236,2.76 -2.76,2.76 -1.524,0 -2.76,-1.236 -2.76,-2.76"
       style="fill:#000000;fill-opacity:1;fill-rule:nonzero;stroke:none"
       id="path98"
       inkscape:connector-curvature="0" /><path
       d="m 188.22034,641.84576 c 0,-1.523 1.236,-2.76 2.76,-2.76 1.523,0 2.76,1.237 2.76,2.76 0,1.524 -1.237,2.76 -2.76,2.76 -1.524,0 -2.76,-1.236 -2.76,-2.76"
       style="fill:#000000;fill-opacity:1;fill-rule:nonzero;stroke:none"
       id="path100"
       inkscape:connector-curvature="0" /><path
       d="m 188.22034,649.04576 c 0,-1.524 1.236,-2.76 2.76,-2.76 1.523,0 2.76,1.236 2.76,2.76 0,1.524 -1.237,2.76 -2.76,2.76 -1.524,0 -2.76,-1.236 -2.76,-2.76"
       style="fill:#000000;fill-opacity:1;fill-rule:nonzero;stroke:none"
       id="path102"
       inkscape:connector-curvature="0" /><path
       d="m 188.22034,656.24576 c 0,-1.523 1.236,-2.76 2.76,-2.76 1.523,0 2.76,1.237 2.76,2.76 0,1.524 -1.237,2.76 -2.76,2.76 -1.524,0 -2.76,-1.236 -2.76,-2.76"
       style="fill:#000000;fill-opacity:1;fill-rule:nonzero;stroke:none"
       id="path104"
       inkscape:connector-curvature="0" /><path
       d="m 188.22034,663.44576 c 0,-1.524 1.236,-2.76 2.76,-2.76 1.523,0 2.76,1.236 2.76,2.76 0,1.524 -1.237,2.76 -2.76,2.76 -1.524,0 -2.76,-1.236 -2.76,-2.76"
       style="fill:#000000;fill-opacity:1;fill-rule:nonzero;stroke:none"
       id="path106"
       inkscape:connector-curvature="0" /><path
       d="m 188.22034,670.64576 c 0,-1.524 1.236,-2.76 2.76,-2.76 1.523,0 2.76,1.236 2.76,2.76 0,1.524 -1.237,2.76 -2.76,2.76 -1.524,0 -2.76,-1.236 -2.76,-2.76"
       style="fill:#000000;fill-opacity:1;fill-rule:nonzero;stroke:none"
       id="path108"
       inkscape:connector-curvature="0" /><path
       d="m 188.22034,677.84576 c 0,-1.523 1.236,-2.76 2.76,-2.76 1.523,0 2.76,1.237 2.76,2.76 0,1.524 -1.237,2.76 -2.76,2.76 -1.524,0 -2.76,-1.236 -2.76,-2.76"
       style="fill:#000000;fill-opacity:1;fill-rule:nonzero;stroke:none"
       id="path110"
       inkscape:connector-curvature="0" /><path
       d="m 188.22034,685.04576 c 0,-1.524 1.236,-2.76 2.76,-2.76 1.523,0 2.76,1.236 2.76,2.76 0,1.524 -1.237,2.76 -2.76,2.76 -1.524,0 -2.76,-1.236 -2.76,-2.76"
       style="fill:#000000;fill-opacity:1;fill-rule:nonzero;stroke:none"
       id="path112"
       inkscape:connector-curvature="0" /><path
       d="m 188.22034,692.24576 c 0,-1.523 1.236,-2.76 2.76,-2.76 1.523,0 2.76,1.237 2.76,2.76 0,1.524 -1.237,2.76 -2.76,2.76 -1.524,0 -2.76,-1.236 -2.76,-2.76"
       style="fill:#000000;fill-opacity:1;fill-rule:nonzero;stroke:none"
       id="path114"
       inkscape:connector-curvature="0" /><path
       d="m 188.22034,699.44576 c 0,-1.523 1.236,-2.76 2.76,-2.76 1.523,0 2.76,1.237 2.76,2.76 0,1.524 -1.237,2.76 -2.76,2.76 -1.524,0 -2.76,-1.236 -2.76,-2.76"
       style="fill:#000000;fill-opacity:1;fill-rule:nonzero;stroke:none"
       id="path116"
       inkscape:connector-curvature="0" /><path
       d="m 188.22034,706.64576 c 0,-1.524 1.236,-2.76 2.76,-2.76 1.523,0 2.76,1.236 2.76,2.76 0,1.524 -1.237,2.76 -2.76,2.76 -1.524,0 -2.76,-1.236 -2.76,-2.76"
       style="fill:#000000;fill-opacity:1;fill-rule:nonzero;stroke:none"
       id="path118"
       inkscape:connector-curvature="0" /><path
       d="m 150.12034,581.18576 -5.04,0 0,-5.04 5.04,0 0,5.04 z"
       style="fill:#000000;fill-opacity:1;fill-rule:nonzero;stroke:none"
       id="path120"
       inkscape:connector-curvature="0" /><path
       d="m 150.12034,573.98576 -5.04,0 0,-5.04 5.04,0 0,5.04 z"
       style="fill:#000000;fill-opacity:1;fill-rule:nonzero;stroke:none"
       id="path122"
       inkscape:connector-curvature="0" /><path
       d="m 150.12034,566.78576 -5.04,0 0,-5.04 5.04,0 0,5.04 z"
       style="fill:#000000;fill-opacity:1;fill-rule:nonzero;stroke:none"
       id="path124"
       inkscape:connector-curvature="0" /><path
       d="m 231.42034,713.84576 c 0,-1.523 1.236,-2.76 2.76,-2.76 1.524,0 2.76,1.237 2.76,2.76 0,1.524 -1.236,2.76 -2.76,2.76 -1.524,0 -2.76,-1.236 -2.76,-2.76"
       style="fill:#000000;fill-opacity:1;fill-rule:nonzero;stroke:none"
       id="path126"
       inkscape:connector-curvature="0" /><path
       d="m 231.42034,721.04576 c 0,-1.524 1.236,-2.76 2.76,-2.76 1.524,0 2.76,1.236 2.76,2.76 0,1.524 -1.236,2.76 -2.76,2.76 -1.524,0 -2.76,-1.236 -2.76,-2.76"
       style="fill:#000000;fill-opacity:1;fill-rule:nonzero;stroke:none"
       id="path128"
       inkscape:connector-curvature="0" /><path
       d="m 231.42034,728.24576 c 0,-1.523 1.236,-2.76 2.76,-2.76 1.524,0 2.76,1.237 2.76,2.76 0,1.524 -1.236,2.76 -2.76,2.76 -1.524,0 -2.76,-1.236 -2.76,-2.76"
       style="fill:#000000;fill-opacity:1;fill-rule:nonzero;stroke:none"
       id="path130"
       inkscape:connector-curvature="0" /><path
       d="m 231.42034,735.44576 c 0,-1.523 1.236,-2.76 2.76,-2.76 1.524,0 2.76,1.237 2.76,2.76 0,1.524 -1.236,2.76 -2.76,2.76 -1.524,0 -2.76,-1.236 -2.76,-2.76"
       style="fill:#000000;fill-opacity:1;fill-rule:nonzero;stroke:none"
       id="path132"
       inkscape:connector-curvature="0" /><path
       d="m 231.42034,742.64576 c 0,-1.524 1.236,-2.76 2.76,-2.76 1.524,0 2.76,1.236 2.76,2.76 0,1.524 -1.236,2.76 -2.76,2.76 -1.524,0 -2.76,-1.236 -2.76,-2.76"
       style="fill:#000000;fill-opacity:1;fill-rule:nonzero;stroke:none"
       id="path134"
       inkscape:connector-curvature="0" /><path
       d="m 124.92034,566.78576 -5.04,0 0,-5.04 5.04,0 0,5.04 z"
       style="fill:#000000;fill-opacity:1;fill-rule:nonzero;stroke:none"
       id="path136"
       inkscape:connector-curvature="0" /><path
       d="m 124.92034,573.98576 -5.04,0 0,-5.04 5.04,0 0,5.04 z"
       style="fill:#000000;fill-opacity:1;fill-rule:nonzero;stroke:none"
       id="path138"
       inkscape:connector-curvature="0" /><path
       d="m 124.92034,581.18576 -5.04,0 0,-5.04 5.04,0 0,5.04 z"
       style="fill:#000000;fill-opacity:1;fill-rule:nonzero;stroke:none"
       id="path140"
       inkscape:connector-curvature="0" /><path
       d="m 188.22034,713.84576 c 0,-1.523 1.236,-2.76 2.76,-2.76 1.523,0 2.76,1.237 2.76,2.76 0,1.524 -1.237,2.76 -2.76,2.76 -1.524,0 -2.76,-1.236 -2.76,-2.76"
       style="fill:#000000;fill-opacity:1;fill-rule:nonzero;stroke:none"
       id="path142"
       inkscape:connector-curvature="0" /><path
       d="m 188.22034,721.04576 c 0,-1.524 1.236,-2.76 2.76,-2.76 1.523,0 2.76,1.236 2.76,2.76 0,1.524 -1.237,2.76 -2.76,2.76 -1.524,0 -2.76,-1.236 -2.76,-2.76"
       style="fill:#000000;fill-opacity:1;fill-rule:nonzero;stroke:none"
       id="path144"
       inkscape:connector-curvature="0" /><path
       d="m 188.22034,728.24576 c 0,-1.523 1.236,-2.76 2.76,-2.76 1.523,0 2.76,1.237 2.76,2.76 0,1.524 -1.237,2.76 -2.76,2.76 -1.524,0 -2.76,-1.236 -2.76,-2.76"
       style="fill:#000000;fill-opacity:1;fill-rule:nonzero;stroke:none"
       id="path146"
       inkscape:connector-curvature="0" /><path
       d="m 188.22034,735.44576 c 0,-1.523 1.236,-2.76 2.76,-2.76 1.523,0 2.76,1.237 2.76,2.76 0,1.524 -1.237,2.76 -2.76,2.76 -1.524,0 -2.76,-1.236 -2.76,-2.76"
       style="fill:#000000;fill-opacity:1;fill-rule:nonzero;stroke:none"
       id="path148"
       inkscape:connector-curvature="0" /><path
       d="m 188.22034,742.64576 c 0,-1.524 1.236,-2.76 2.76,-2.76 1.523,0 2.76,1.236 2.76,2.76 0,1.524 -1.237,2.76 -2.76,2.76 -1.524,0 -2.76,-1.236 -2.76,-2.76"
       style="fill:#000000;fill-opacity:1;fill-rule:nonzero;stroke:none"
       id="path150"
       inkscape:connector-curvature="0" /><path
       d="m 113.16034,580.70576 -3.12,0 0,-4.08 3.12,0 0,4.08 z"
       style="fill:#000000;fill-opacity:1;fill-rule:nonzero;stroke:none"
       id="path152"
       inkscape:connector-curvature="0" /><path
       d="m 107.64034,580.70576 -3.12,0 0,-4.08 3.12,0 0,4.08 z"
       style="fill:#000000;fill-opacity:1;fill-rule:nonzero;stroke:none"
       id="path154"
       inkscape:connector-curvature="0" /><path
       d="m 101.16034,565.82576 -4.560001,0 0,-3.12 4.560001,0 0,3.12 z"
       style="fill:#000000;fill-opacity:1;fill-rule:nonzero;stroke:none"
       id="path156"
       inkscape:connector-curvature="0" /><path
       d="m 101.16034,559.34576 -4.560001,0 0,-3.12 4.560001,0 0,3.12 z"
       style="fill:#000000;fill-opacity:1;fill-rule:nonzero;stroke:none"
       id="path158"
       inkscape:connector-curvature="0" /><path
       d="m 101.16034,572.54576 -4.560001,0 0,-3.12 4.560001,0 0,3.12 z"
       style="fill:#000000;fill-opacity:1;fill-rule:nonzero;stroke:none"
       id="path160"
       inkscape:connector-curvature="0" /><path
       d="m 83.640339,569.18576 -5.04,0 0,-9.84 5.04,0 0,9.84 z"
       style="fill:#000000;fill-opacity:1;fill-rule:nonzero;stroke:none"
       id="path162"
       inkscape:connector-curvature="0" /><path
       d="m 111.72034,564.14576 -4.08,0 0,-3.12 4.08,0 0,3.12 z"
       style="fill:#000000;fill-opacity:1;fill-rule:nonzero;stroke:none"
       id="path164"
       inkscape:connector-curvature="0" /><path
       d="m 111.72034,569.66576 -4.08,0 0,-3.12 4.08,0 0,3.12 z"
       style="fill:#000000;fill-opacity:1;fill-rule:nonzero;stroke:none"
       id="path166"
       inkscape:connector-curvature="0" /><path
       d="m 160.44034,585.74576 -4.08,0 0,-3.12 4.08,0 0,3.12 z"
       style="fill:#000000;fill-opacity:1;fill-rule:nonzero;stroke:none"
       id="path168"
       inkscape:connector-curvature="0" /><path
       d="m 160.44034,580.22576 -4.08,0 0,-3.12 4.08,0 0,3.12 z"
       style="fill:#000000;fill-opacity:1;fill-rule:nonzero;stroke:none"
       id="path170"
       inkscape:connector-curvature="0" /><path
       d="m 150.12034,609.98576 -5.04,0 0,-5.04 5.04,0 0,5.04 z"
       style="fill:#000000;fill-opacity:1;fill-rule:nonzero;stroke:none"
       id="path172"
       inkscape:connector-curvature="0" /><path
       d="m 150.12034,602.78576 -5.04,0 0,-5.04 5.04,0 0,5.04 z"
       style="fill:#000000;fill-opacity:1;fill-rule:nonzero;stroke:none"
       id="path174"
       inkscape:connector-curvature="0" /><path
       d="m 260.04034,784.94576 -5.52,0 0,-5.52 5.52,0 0,5.52 z"
       style="fill:#000000;fill-opacity:1;fill-rule:nonzero;stroke:none"
       id="path176"
       inkscape:connector-curvature="0" /><path
       d="m 247.50034,782.24576 c 0,-1.523 1.236,-2.76 2.76,-2.76 1.524,0 2.76,1.237 2.76,2.76 0,1.524 -1.236,2.76 -2.76,2.76 -1.524,0 -2.76,-1.236 -2.76,-2.76"
       style="fill:#000000;fill-opacity:1;fill-rule:nonzero;stroke:none"
       id="path178"
       inkscape:connector-curvature="0" /><path
       d="m 216.84034,784.94576 -5.52,0 0,-5.52 5.52,0 0,5.52 z"
       style="fill:#000000;fill-opacity:1;fill-rule:nonzero;stroke:none"
       id="path180"
       inkscape:connector-curvature="0" /><path
       d="m 204.30034,782.24576 c 0,-1.523 1.236,-2.76 2.76,-2.76 1.524,0 2.76,1.237 2.76,2.76 0,1.524 -1.236,2.76 -2.76,2.76 -1.524,0 -2.76,-1.236 -2.76,-2.76"
       style="fill:#000000;fill-opacity:1;fill-rule:nonzero;stroke:none"
       id="path182"
       inkscape:connector-curvature="0" /><path
       d="m 60.360339,784.94576 -5.52,0 0,-5.52 5.52,0 0,5.52 z"
       style="fill:#000000;fill-opacity:1;fill-rule:nonzero;stroke:none"
       id="path184"
       inkscape:connector-curvature="0" /><path
       d="m 47.820339,782.24576 c 0,-1.523 1.236,-2.76 2.76,-2.76 1.524,0 2.76,1.237 2.76,2.76 0,1.524 -1.236,2.76 -2.76,2.76 -1.524,0 -2.76,-1.236 -2.76,-2.76"
       style="fill:#000000;fill-opacity:1;fill-rule:nonzero;stroke:none"
       id="path186"
       inkscape:connector-curvature="0" /><path
       d="m 150.12034,595.58576 -5.04,0 0,-5.04 5.04,0 0,5.04 z"
       style="fill:#000000;fill-opacity:1;fill-rule:nonzero;stroke:none"
       id="path188"
       inkscape:connector-curvature="0" /><path
       d="m 124.92034,595.58576 -5.04,0 0,-5.04 5.04,0 0,5.04 z"
       style="fill:#000000;fill-opacity:1;fill-rule:nonzero;stroke:none"
       id="path190"
       inkscape:connector-curvature="0" /><path
       d="m 124.92034,602.78576 -5.04,0 0,-5.04 5.04,0 0,5.04 z"
       style="fill:#000000;fill-opacity:1;fill-rule:nonzero;stroke:none"
       id="path192"
       inkscape:connector-curvature="0" /><path
       d="m 124.92034,609.98576 -5.04,0 0,-5.04 5.04,0 0,5.04 z"
       style="fill:#000000;fill-opacity:1;fill-rule:nonzero;stroke:none"
       id="path194"
       inkscape:connector-curvature="0" /><path
       d="m 113.16034,609.50576 -3.12,0 0,-4.08 3.12,0 0,4.08 z"
       style="fill:#000000;fill-opacity:1;fill-rule:nonzero;stroke:none"
       id="path196"
       inkscape:connector-curvature="0" /><path
       d="m 107.64034,609.50576 -3.12,0 0,-4.08 3.12,0 0,4.08 z"
       style="fill:#000000;fill-opacity:1;fill-rule:nonzero;stroke:none"
       id="path198"
       inkscape:connector-curvature="0" /><path
       d="m 101.16034,594.62576 -4.560001,0 0,-3.12 4.560001,0 0,3.12 z"
       style="fill:#000000;fill-opacity:1;fill-rule:nonzero;stroke:none"
       id="path200"
       inkscape:connector-curvature="0" /><path
       d="m 101.16034,588.14576 -4.560001,0 0,-3.12 4.560001,0 0,3.12 z"
       style="fill:#000000;fill-opacity:1;fill-rule:nonzero;stroke:none"
       id="path202"
       inkscape:connector-curvature="0" /><path
       d="m 101.16034,601.34576 -4.560001,0 0,-3.12 4.560001,0 0,3.12 z"
       style="fill:#000000;fill-opacity:1;fill-rule:nonzero;stroke:none"
       id="path204"
       inkscape:connector-curvature="0" /><path
       d="m 83.640339,597.98576 -5.04,0 0,-9.84 5.04,0 0,9.84 z"
       style="fill:#000000;fill-opacity:1;fill-rule:nonzero;stroke:none"
       id="path206"
       inkscape:connector-curvature="0" /><path
       d="m 111.72034,592.94576 -4.08,0 0,-3.12 4.08,0 0,3.12 z"
       style="fill:#000000;fill-opacity:1;fill-rule:nonzero;stroke:none"
       id="path208"
       inkscape:connector-curvature="0" /><path
       d="m 111.72034,598.46576 -4.08,0 0,-3.12 4.08,0 0,3.12 z"
       style="fill:#000000;fill-opacity:1;fill-rule:nonzero;stroke:none"
       id="path210"
       inkscape:connector-curvature="0" /><path
       d="m 160.44034,614.54576 -4.08,0 0,-3.12 4.08,0 0,3.12 z"
       style="fill:#000000;fill-opacity:1;fill-rule:nonzero;stroke:none"
       id="path212"
       inkscape:connector-curvature="0" /><path
       d="m 160.44034,609.02576 -4.08,0 0,-3.12 4.08,0 0,3.12 z"
       style="fill:#000000;fill-opacity:1;fill-rule:nonzero;stroke:none"
       id="path214"
       inkscape:connector-curvature="0" /><path
       d="m 150.12034,638.78576 -5.04,0 0,-5.04 5.04,0 0,5.04 z"
       style="fill:#000000;fill-opacity:1;fill-rule:nonzero;stroke:none"
       id="path216"
       inkscape:connector-curvature="0" /><path
       d="m 150.12034,631.58576 -5.04,0 0,-5.04 5.04,0 0,5.04 z"
       style="fill:#000000;fill-opacity:1;fill-rule:nonzero;stroke:none"
       id="path218"
       inkscape:connector-curvature="0" /><path
       d="m 150.12034,624.38576 -5.04,0 0,-5.04 5.04,0 0,5.04 z"
       style="fill:#000000;fill-opacity:1;fill-rule:nonzero;stroke:none"
       id="path220"
       inkscape:connector-curvature="0" /><path
       d="m 124.92034,624.38576 -5.04,0 0,-5.04 5.04,0 0,5.04 z"
       style="fill:#000000;fill-opacity:1;fill-rule:nonzero;stroke:none"
       id="path222"
       inkscape:connector-curvature="0" /><path
       d="m 124.92034,631.58576 -5.04,0 0,-5.04 5.04,0 0,5.04 z"
       style="fill:#000000;fill-opacity:1;fill-rule:nonzero;stroke:none"
       id="path224"
       inkscape:connector-curvature="0" /><path
       d="m 124.92034,638.78576 -5.04,0 0,-5.04 5.04,0 0,5.04 z"
       style="fill:#000000;fill-opacity:1;fill-rule:nonzero;stroke:none"
       id="path226"
       inkscape:connector-curvature="0" /><path
       d="m 113.16034,638.30576 -3.12,0 0,-4.08 3.12,0 0,4.08 z"
       style="fill:#000000;fill-opacity:1;fill-rule:nonzero;stroke:none"
       id="path228"
       inkscape:connector-curvature="0" /><path
       d="m 107.64034,638.30576 -3.12,0 0,-4.08 3.12,0 0,4.08 z"
       style="fill:#000000;fill-opacity:1;fill-rule:nonzero;stroke:none"
       id="path230"
       inkscape:connector-curvature="0" /><path
       d="m 101.16034,623.42576 -4.560001,0 0,-3.12 4.560001,0 0,3.12 z"
       style="fill:#000000;fill-opacity:1;fill-rule:nonzero;stroke:none"
       id="path232"
       inkscape:connector-curvature="0" /><path
       d="m 101.16034,616.94576 -4.560001,0 0,-3.12 4.560001,0 0,3.12 z"
       style="fill:#000000;fill-opacity:1;fill-rule:nonzero;stroke:none"
       id="path234"
       inkscape:connector-curvature="0" /><path
       d="m 101.16034,630.14576 -4.560001,0 0,-3.12 4.560001,0 0,3.12 z"
       style="fill:#000000;fill-opacity:1;fill-rule:nonzero;stroke:none"
       id="path236"
       inkscape:connector-curvature="0" /><path
       d="m 83.640339,626.78576 -5.04,0 0,-9.84 5.04,0 0,9.84 z"
       style="fill:#000000;fill-opacity:1;fill-rule:nonzero;stroke:none"
       id="path238"
       inkscape:connector-curvature="0" /><path
       d="m 111.72034,621.74576 -4.08,0 0,-3.12 4.08,0 0,3.12 z"
       style="fill:#000000;fill-opacity:1;fill-rule:nonzero;stroke:none"
       id="path240"
       inkscape:connector-curvature="0" /><path
       d="m 111.72034,627.26576 -4.08,0 0,-3.12 4.08,0 0,3.12 z"
       style="fill:#000000;fill-opacity:1;fill-rule:nonzero;stroke:none"
       id="path242"
       inkscape:connector-curvature="0" /><path
       d="m 160.44034,643.34576 -4.08,0 0,-3.12 4.08,0 0,3.12 z"
       style="fill:#000000;fill-opacity:1;fill-rule:nonzero;stroke:none"
       id="path244"
       inkscape:connector-curvature="0" /><path
       d="m 160.44034,637.82576 -4.08,0 0,-3.12 4.08,0 0,3.12 z"
       style="fill:#000000;fill-opacity:1;fill-rule:nonzero;stroke:none"
       id="path246"
       inkscape:connector-curvature="0" /><path
       d="m 150.12034,667.58576 -5.04,0 0,-5.04 5.04,0 0,5.04 z"
       style="fill:#000000;fill-opacity:1;fill-rule:nonzero;stroke:none"
       id="path248"
       inkscape:connector-curvature="0" /><path
       d="m 150.12034,660.38576 -5.04,0 0,-5.04 5.04,0 0,5.04 z"
       style="fill:#000000;fill-opacity:1;fill-rule:nonzero;stroke:none"
       id="path250"
       inkscape:connector-curvature="0" /><path
       d="m 150.12034,653.18576 -5.04,0 0,-5.04 5.04,0 0,5.04 z"
       style="fill:#000000;fill-opacity:1;fill-rule:nonzero;stroke:none"
       id="path252"
       inkscape:connector-curvature="0" /><path
       d="m 124.92034,653.18576 -5.04,0 0,-5.04 5.04,0 0,5.04 z"
       style="fill:#000000;fill-opacity:1;fill-rule:nonzero;stroke:none"
       id="path254"
       inkscape:connector-curvature="0" /><path
       d="m 124.92034,660.38576 -5.04,0 0,-5.04 5.04,0 0,5.04 z"
       style="fill:#000000;fill-opacity:1;fill-rule:nonzero;stroke:none"
       id="path256"
       inkscape:connector-curvature="0" /><path
       d="m 124.92034,667.58576 -5.04,0 0,-5.04 5.04,0 0,5.04 z"
       style="fill:#000000;fill-opacity:1;fill-rule:nonzero;stroke:none"
       id="path258"
       inkscape:connector-curvature="0" /><path
       d="m 113.16034,667.10576 -3.12,0 0,-4.08 3.12,0 0,4.08 z"
       style="fill:#000000;fill-opacity:1;fill-rule:nonzero;stroke:none"
       id="path260"
       inkscape:connector-curvature="0" /><path
       d="m 107.64034,667.10576 -3.12,0 0,-4.08 3.12,0 0,4.08 z"
       style="fill:#000000;fill-opacity:1;fill-rule:nonzero;stroke:none"
       id="path262"
       inkscape:connector-curvature="0" /><path
       d="m 101.16034,652.22576 -4.560001,0 0,-3.12 4.560001,0 0,3.12 z"
       style="fill:#000000;fill-opacity:1;fill-rule:nonzero;stroke:none"
       id="path264"
       inkscape:connector-curvature="0" /><path
       d="m 101.16034,645.74576 -4.560001,0 0,-3.12 4.560001,0 0,3.12 z"
       style="fill:#000000;fill-opacity:1;fill-rule:nonzero;stroke:none"
       id="path266"
       inkscape:connector-curvature="0" /><path
       d="m 101.16034,658.94576 -4.560001,0 0,-3.12 4.560001,0 0,3.12 z"
       style="fill:#000000;fill-opacity:1;fill-rule:nonzero;stroke:none"
       id="path268"
       inkscape:connector-curvature="0" /><path
       d="m 83.640339,655.58576 -5.04,0 0,-9.84 5.04,0 0,9.84 z"
       style="fill:#000000;fill-opacity:1;fill-rule:nonzero;stroke:none"
       id="path270"
       inkscape:connector-curvature="0" /><path
       d="m 111.72034,650.54576 -4.08,0 0,-3.12 4.08,0 0,3.12 z"
       style="fill:#000000;fill-opacity:1;fill-rule:nonzero;stroke:none"
       id="path272"
       inkscape:connector-curvature="0" /><path
       d="m 111.72034,656.06576 -4.08,0 0,-3.12 4.08,0 0,3.12 z"
       style="fill:#000000;fill-opacity:1;fill-rule:nonzero;stroke:none"
       id="path274"
       inkscape:connector-curvature="0" /><path
       d="m 160.44034,672.14576 -4.08,0 0,-3.12 4.08,0 0,3.12 z"
       style="fill:#000000;fill-opacity:1;fill-rule:nonzero;stroke:none"
       id="path276"
       inkscape:connector-curvature="0" /><path
       d="m 160.44034,666.62576 -4.08,0 0,-3.12 4.08,0 0,3.12 z"
       style="fill:#000000;fill-opacity:1;fill-rule:nonzero;stroke:none"
       id="path278"
       inkscape:connector-curvature="0" /><path
       d="m 150.12034,696.38576 -5.04,0 0,-5.04 5.04,0 0,5.04 z"
       style="fill:#000000;fill-opacity:1;fill-rule:nonzero;stroke:none"
       id="path280"
       inkscape:connector-curvature="0" /><path
       d="m 150.12034,689.18576 -5.04,0 0,-5.04 5.04,0 0,5.04 z"
       style="fill:#000000;fill-opacity:1;fill-rule:nonzero;stroke:none"
       id="path282"
       inkscape:connector-curvature="0" /><path
       d="m 150.12034,681.98576 -5.04,0 0,-5.04 5.04,0 0,5.04 z"
       style="fill:#000000;fill-opacity:1;fill-rule:nonzero;stroke:none"
       id="path284"
       inkscape:connector-curvature="0" /><path
       d="m 124.92034,681.98576 -5.04,0 0,-5.04 5.04,0 0,5.04 z"
       style="fill:#000000;fill-opacity:1;fill-rule:nonzero;stroke:none"
       id="path286"
       inkscape:connector-curvature="0" /><path
       d="m 124.92034,689.18576 -5.04,0 0,-5.04 5.04,0 0,5.04 z"
       style="fill:#000000;fill-opacity:1;fill-rule:nonzero;stroke:none"
       id="path288"
       inkscape:connector-curvature="0" /><path
       d="m 124.92034,696.38576 -5.04,0 0,-5.04 5.04,0 0,5.04 z"
       style="fill:#000000;fill-opacity:1;fill-rule:nonzero;stroke:none"
       id="path290"
       inkscape:connector-curvature="0" /><path
       d="m 113.16034,695.90576 -3.12,0 0,-4.08 3.12,0 0,4.08 z"
       style="fill:#000000;fill-opacity:1;fill-rule:nonzero;stroke:none"
       id="path292"
       inkscape:connector-curvature="0" /><path
       d="m 107.64034,695.90576 -3.12,0 0,-4.08 3.12,0 0,4.08 z"
       style="fill:#000000;fill-opacity:1;fill-rule:nonzero;stroke:none"
       id="path294"
       inkscape:connector-curvature="0" /><path
       d="m 101.16034,681.02576 -4.560001,0 0,-3.12 4.560001,0 0,3.12 z"
       style="fill:#000000;fill-opacity:1;fill-rule:nonzero;stroke:none"
       id="path296"
       inkscape:connector-curvature="0" /><path
       d="m 101.16034,674.54576 -4.560001,0 0,-3.12 4.560001,0 0,3.12 z"
       style="fill:#000000;fill-opacity:1;fill-rule:nonzero;stroke:none"
       id="path298"
       inkscape:connector-curvature="0" /><path
       d="m 101.16034,687.74576 -4.560001,0 0,-3.12 4.560001,0 0,3.12 z"
       style="fill:#000000;fill-opacity:1;fill-rule:nonzero;stroke:none"
       id="path300"
       inkscape:connector-curvature="0" /><path
       d="m 83.640339,684.38576 -5.04,0 0,-9.84 5.04,0 0,9.84 z"
       style="fill:#000000;fill-opacity:1;fill-rule:nonzero;stroke:none"
       id="path302"
       inkscape:connector-curvature="0" /><path
       d="m 111.72034,679.34576 -4.08,0 0,-3.12 4.08,0 0,3.12 z"
       style="fill:#000000;fill-opacity:1;fill-rule:nonzero;stroke:none"
       id="path304"
       inkscape:connector-curvature="0" /><path
       d="m 111.72034,684.86576 -4.08,0 0,-3.12 4.08,0 0,3.12 z"
       style="fill:#000000;fill-opacity:1;fill-rule:nonzero;stroke:none"
       id="path306"
       inkscape:connector-curvature="0" /><path
       d="m 160.44034,690.14576 -4.08,0 0,-3.12 4.08,0 0,3.12 z"
       style="fill:#000000;fill-opacity:1;fill-rule:nonzero;stroke:none"
       id="path308"
       inkscape:connector-curvature="0" /><path
       d="m 160.44034,695.66576 -4.08,0 0,-3.12 4.08,0 0,3.12 z"
       style="fill:#000000;fill-opacity:1;fill-rule:nonzero;stroke:none"
       id="path310"
       inkscape:connector-curvature="0" /><path
       d="m 150.12034,725.18576 -5.04,0 0,-5.04 5.04,0 0,5.04 z"
       style="fill:#000000;fill-opacity:1;fill-rule:nonzero;stroke:none"
       id="path312"
       inkscape:connector-curvature="0" /><path
       d="m 150.12034,717.98576 -5.04,0 0,-5.04 5.04,0 0,5.04 z"
       style="fill:#000000;fill-opacity:1;fill-rule:nonzero;stroke:none"
       id="path314"
       inkscape:connector-curvature="0" /><path
       d="m 150.12034,710.78576 -5.04,0 0,-5.04 5.04,0 0,5.04 z"
       style="fill:#000000;fill-opacity:1;fill-rule:nonzero;stroke:none"
       id="path316"
       inkscape:connector-curvature="0" /><path
       d="m 124.92034,710.78576 -5.04,0 0,-5.04 5.04,0 0,5.04 z"
       style="fill:#000000;fill-opacity:1;fill-rule:nonzero;stroke:none"
       id="path318"
       inkscape:connector-curvature="0" /><path
       d="m 124.92034,717.98576 -5.04,0 0,-5.04 5.04,0 0,5.04 z"
       style="fill:#000000;fill-opacity:1;fill-rule:nonzero;stroke:none"
       id="path320"
       inkscape:connector-curvature="0" /><path
       d="m 124.92034,725.18576 -5.04,0 0,-5.04 5.04,0 0,5.04 z"
       style="fill:#000000;fill-opacity:1;fill-rule:nonzero;stroke:none"
       id="path322"
       inkscape:connector-curvature="0" /><path
       d="m 113.16034,724.70576 -3.12,0 0,-4.08 3.12,0 0,4.08 z"
       style="fill:#000000;fill-opacity:1;fill-rule:nonzero;stroke:none"
       id="path324"
       inkscape:connector-curvature="0" /><path
       d="m 107.64034,724.70576 -3.12,0 0,-4.08 3.12,0 0,4.08 z"
       style="fill:#000000;fill-opacity:1;fill-rule:nonzero;stroke:none"
       id="path326"
       inkscape:connector-curvature="0" /><path
       d="m 101.16034,709.82576 -4.560001,0 0,-3.12 4.560001,0 0,3.12 z"
       style="fill:#000000;fill-opacity:1;fill-rule:nonzero;stroke:none"
       id="path328"
       inkscape:connector-curvature="0" /><path
       d="m 101.16034,703.34576 -4.560001,0 0,-3.12 4.560001,0 0,3.12 z"
       style="fill:#000000;fill-opacity:1;fill-rule:nonzero;stroke:none"
       id="path330"
       inkscape:connector-curvature="0" /><path
       d="m 101.16034,716.54576 -4.560001,0 0,-3.12 4.560001,0 0,3.12 z"
       style="fill:#000000;fill-opacity:1;fill-rule:nonzero;stroke:none"
       id="path332"
       inkscape:connector-curvature="0" /><path
       d="m 83.640339,713.18576 -5.04,0 0,-9.84 5.04,0 0,9.84 z"
       style="fill:#000000;fill-opacity:1;fill-rule:nonzero;stroke:none"
       id="path334"
       inkscape:connector-curvature="0" /><path
       d="m 111.72034,708.14576 -4.08,0 0,-3.12 4.08,0 0,3.12 z"
       style="fill:#000000;fill-opacity:1;fill-rule:nonzero;stroke:none"
       id="path336"
       inkscape:connector-curvature="0" /><path
       d="m 111.72034,713.66576 -4.08,0 0,-3.12 4.08,0 0,3.12 z"
       style="fill:#000000;fill-opacity:1;fill-rule:nonzero;stroke:none"
       id="path338"
       inkscape:connector-curvature="0" /><path
       d="m 160.44034,718.94576 -4.08,0 0,-3.12 4.08,0 0,3.12 z"
       style="fill:#000000;fill-opacity:1;fill-rule:nonzero;stroke:none"
       id="path340"
       inkscape:connector-curvature="0" /><path
       d="m 160.44034,724.46576 -4.08,0 0,-3.12 4.08,0 0,3.12 z"
       style="fill:#000000;fill-opacity:1;fill-rule:nonzero;stroke:none"
       id="path342"
       inkscape:connector-curvature="0" /><path
       d="m 150.12034,753.98576 -5.04,0 0,-5.04 5.04,0 0,5.04 z"
       style="fill:#000000;fill-opacity:1;fill-rule:nonzero;stroke:none"
       id="path344"
       inkscape:connector-curvature="0" /><path
       d="m 150.12034,746.78576 -5.04,0 0,-5.04 5.04,0 0,5.04 z"
       style="fill:#000000;fill-opacity:1;fill-rule:nonzero;stroke:none"
       id="path346"
       inkscape:connector-curvature="0" /><path
       d="m 150.12034,739.58576 -5.04,0 0,-5.04 5.04,0 0,5.04 z"
       style="fill:#000000;fill-opacity:1;fill-rule:nonzero;stroke:none"
       id="path348"
       inkscape:connector-curvature="0" /><path
       d="m 124.92034,739.58576 -5.04,0 0,-5.04 5.04,0 0,5.04 z"
       style="fill:#000000;fill-opacity:1;fill-rule:nonzero;stroke:none"
       id="path350"
       inkscape:connector-curvature="0" /><path
       d="m 124.92034,746.78576 -5.04,0 0,-5.04 5.04,0 0,5.04 z"
       style="fill:#000000;fill-opacity:1;fill-rule:nonzero;stroke:none"
       id="path352"
       inkscape:connector-curvature="0" /><path
       d="m 124.92034,753.98576 -5.04,0 0,-5.04 5.04,0 0,5.04 z"
       style="fill:#000000;fill-opacity:1;fill-rule:nonzero;stroke:none"
       id="path354"
       inkscape:connector-curvature="0" /><path
       d="m 113.16034,753.50576 -3.12,0 0,-4.08 3.12,0 0,4.08 z"
       style="fill:#000000;fill-opacity:1;fill-rule:nonzero;stroke:none"
       id="path356"
       inkscape:connector-curvature="0" /><path
       d="m 107.64034,753.50576 -3.12,0 0,-4.08 3.12,0 0,4.08 z"
       style="fill:#000000;fill-opacity:1;fill-rule:nonzero;stroke:none"
       id="path358"
       inkscape:connector-curvature="0" /><path
       d="m 101.16034,738.62576 -4.560001,0 0,-3.12 4.560001,0 0,3.12 z"
       style="fill:#000000;fill-opacity:1;fill-rule:nonzero;stroke:none"
       id="path360"
       inkscape:connector-curvature="0" /><path
       d="m 101.16034,732.14576 -4.560001,0 0,-3.12 4.560001,0 0,3.12 z"
       style="fill:#000000;fill-opacity:1;fill-rule:nonzero;stroke:none"
       id="path362"
       inkscape:connector-curvature="0" /><path
       d="m 101.16034,745.34576 -4.560001,0 0,-3.12 4.560001,0 0,3.12 z"
       style="fill:#000000;fill-opacity:1;fill-rule:nonzero;stroke:none"
       id="path364"
       inkscape:connector-curvature="0" /><path
       d="m 83.640339,741.98576 -5.04,0 0,-9.84 5.04,0 0,9.84 z"
       style="fill:#000000;fill-opacity:1;fill-rule:nonzero;stroke:none"
       id="path366"
       inkscape:connector-curvature="0" /><path
       d="m 111.72034,736.94576 -4.08,0 0,-3.12 4.08,0 0,3.12 z"
       style="fill:#000000;fill-opacity:1;fill-rule:nonzero;stroke:none"
       id="path368"
       inkscape:connector-curvature="0" /><path
       d="m 111.72034,742.46576 -4.08,0 0,-3.12 4.08,0 0,3.12 z"
       style="fill:#000000;fill-opacity:1;fill-rule:nonzero;stroke:none"
       id="path370"
       inkscape:connector-curvature="0" /><path
       d="m 160.44034,747.74576 -4.08,0 0,-3.12 4.08,0 0,3.12 z"
       style="fill:#000000;fill-opacity:1;fill-rule:nonzero;stroke:none"
       id="path372"
       inkscape:connector-curvature="0" /><path
       d="m 160.44034,753.26576 -4.08,0 0,-3.12 4.08,0 0,3.12 z"
       style="fill:#000000;fill-opacity:1;fill-rule:nonzero;stroke:none"
       id="path374"
       inkscape:connector-curvature="0" /><path
       d="m 150.12034,782.78576 -5.04,0 0,-5.04 5.04,0 0,5.04 z"
       style="fill:#000000;fill-opacity:1;fill-rule:nonzero;stroke:none"
       id="path376"
       inkscape:connector-curvature="0" /><path
       d="m 150.12034,775.58576 -5.04,0 0,-5.04 5.04,0 0,5.04 z"
       style="fill:#000000;fill-opacity:1;fill-rule:nonzero;stroke:none"
       id="path378"
       inkscape:connector-curvature="0" /><path
       d="m 150.12034,768.38576 -5.04,0 0,-5.04 5.04,0 0,5.04 z"
       style="fill:#000000;fill-opacity:1;fill-rule:nonzero;stroke:none"
       id="path380"
       inkscape:connector-curvature="0" /><path
       d="m 124.92034,768.38576 -5.04,0 0,-5.04 5.04,0 0,5.04 z"
       style="fill:#000000;fill-opacity:1;fill-rule:nonzero;stroke:none"
       id="path382"
       inkscape:connector-curvature="0" /><path
       d="m 124.92034,775.58576 -5.04,0 0,-5.04 5.04,0 0,5.04 z"
       style="fill:#000000;fill-opacity:1;fill-rule:nonzero;stroke:none"
       id="path384"
       inkscape:connector-curvature="0" /><path
       d="m 124.92034,782.78576 -5.04,0 0,-5.04 5.04,0 0,5.04 z"
       style="fill:#000000;fill-opacity:1;fill-rule:nonzero;stroke:none"
       id="path386"
       inkscape:connector-curvature="0" /><path
       d="m 113.16034,782.30576 -3.12,0 0,-4.08 3.12,0 0,4.08 z"
       style="fill:#000000;fill-opacity:1;fill-rule:nonzero;stroke:none"
       id="path388"
       inkscape:connector-curvature="0" /><path
       d="m 107.64034,782.30576 -3.12,0 0,-4.08 3.12,0 0,4.08 z"
       style="fill:#000000;fill-opacity:1;fill-rule:nonzero;stroke:none"
       id="path390"
       inkscape:connector-curvature="0" /><path
       d="m 101.16034,767.42576 -4.560001,0 0,-3.12 4.560001,0 0,3.12 z"
       style="fill:#000000;fill-opacity:1;fill-rule:nonzero;stroke:none"
       id="path392"
       inkscape:connector-curvature="0" /><path
       d="m 101.16034,760.94576 -4.560001,0 0,-3.12 4.560001,0 0,3.12 z"
       style="fill:#000000;fill-opacity:1;fill-rule:nonzero;stroke:none"
       id="path394"
       inkscape:connector-curvature="0" /><path
       d="m 101.16034,774.14576 -4.560001,0 0,-3.12 4.560001,0 0,3.12 z"
       style="fill:#000000;fill-opacity:1;fill-rule:nonzero;stroke:none"
       id="path396"
       inkscape:connector-curvature="0" /><path
       d="m 83.640339,770.78576 -5.04,0 0,-9.84 5.04,0 0,9.84 z"
       style="fill:#000000;fill-opacity:1;fill-rule:nonzero;stroke:none"
       id="path398"
       inkscape:connector-curvature="0" /><path
       d="m 111.72034,765.74576 -4.08,0 0,-3.12 4.08,0 0,3.12 z"
       style="fill:#000000;fill-opacity:1;fill-rule:nonzero;stroke:none"
       id="path400"
       inkscape:connector-curvature="0" /><path
       d="m 111.72034,771.26576 -4.08,0 0,-3.12 4.08,0 0,3.12 z"
       style="fill:#000000;fill-opacity:1;fill-rule:nonzero;stroke:none"
       id="path402"
       inkscape:connector-curvature="0" /><path
       d="m 160.44034,776.54576 -4.08,0 0,-3.12 4.08,0 0,3.12 z"
       style="fill:#000000;fill-opacity:1;fill-rule:nonzero;stroke:none"
       id="path404"
       inkscape:connector-curvature="0" /><path
       d="m 160.44034,782.06576 -4.08,0 0,-3.12 4.08,0 0,3.12 z"
       style="fill:#000000;fill-opacity:1;fill-rule:nonzero;stroke:none"
       id="path406"
       inkscape:connector-curvature="0" /><path
       d="m 53.160339,702.14576 -5.52,0 0,-5.52 5.52,0 0,5.52 z"
       style="fill:#000000;fill-opacity:1;fill-rule:nonzero;stroke:none"
       id="path408"
       inkscape:connector-curvature="0" /><path
       d="m 47.820339,692.24576 c 0,-1.523 1.236,-2.76 2.76,-2.76 1.524,0 2.76,1.237 2.76,2.76 0,1.524 -1.236,2.76 -2.76,2.76 -1.524,0 -2.76,-1.236 -2.76,-2.76"
       style="fill:#000000;fill-opacity:1;fill-rule:nonzero;stroke:none"
       id="path410"
       inkscape:connector-curvature="0" /><path
       d="m 47.820339,685.04576 c 0,-1.524 1.236,-2.76 2.76,-2.76 1.524,0 2.76,1.236 2.76,2.76 0,1.524 -1.236,2.76 -2.76,2.76 -1.524,0 -2.76,-1.236 -2.76,-2.76"
       style="fill:#000000;fill-opacity:1;fill-rule:nonzero;stroke:none"
       id="path412"
       inkscape:connector-curvature="0" /><path
       d="m 47.820339,677.84576 c 0,-1.523 1.236,-2.76 2.76,-2.76 1.524,0 2.76,1.237 2.76,2.76 0,1.524 -1.236,2.76 -2.76,2.76 -1.524,0 -2.76,-1.236 -2.76,-2.76"
       style="fill:#000000;fill-opacity:1;fill-rule:nonzero;stroke:none"
       id="path414"
       inkscape:connector-curvature="0" /><path
       d="m 47.820339,670.64576 c 0,-1.524 1.236,-2.76 2.76,-2.76 1.524,0 2.76,1.236 2.76,2.76 0,1.524 -1.236,2.76 -2.76,2.76 -1.524,0 -2.76,-1.236 -2.76,-2.76"
       style="fill:#000000;fill-opacity:1;fill-rule:nonzero;stroke:none"
       id="path416"
       inkscape:connector-curvature="0" /><path
       d="m 47.820339,663.44576 c 0,-1.524 1.236,-2.76 2.76,-2.76 1.524,0 2.76,1.236 2.76,2.76 0,1.524 -1.236,2.76 -2.76,2.76 -1.524,0 -2.76,-1.236 -2.76,-2.76"
       style="fill:#000000;fill-opacity:1;fill-rule:nonzero;stroke:none"
       id="path418"
       inkscape:connector-curvature="0" /><path
       d="m 47.820339,656.24576 c 0,-1.523 1.236,-2.76 2.76,-2.76 1.524,0 2.76,1.237 2.76,2.76 0,1.524 -1.236,2.76 -2.76,2.76 -1.524,0 -2.76,-1.236 -2.76,-2.76"
       style="fill:#000000;fill-opacity:1;fill-rule:nonzero;stroke:none"
       id="path420"
       inkscape:connector-curvature="0" /><path
       d="m 47.820339,649.04576 c 0,-1.524 1.236,-2.76 2.76,-2.76 1.524,0 2.76,1.236 2.76,2.76 0,1.524 -1.236,2.76 -2.76,2.76 -1.524,0 -2.76,-1.236 -2.76,-2.76"
       style="fill:#000000;fill-opacity:1;fill-rule:nonzero;stroke:none"
       id="path422"
       inkscape:connector-curvature="0" /><path
       d="m 47.820339,641.84576 c 0,-1.523 1.236,-2.76 2.76,-2.76 1.524,0 2.76,1.237 2.76,2.76 0,1.524 -1.236,2.76 -2.76,2.76 -1.524,0 -2.76,-1.236 -2.76,-2.76"
       style="fill:#000000;fill-opacity:1;fill-rule:nonzero;stroke:none"
       id="path424"
       inkscape:connector-curvature="0" /><path
       d="m 47.820339,634.64576 c 0,-1.524 1.236,-2.76 2.76,-2.76 1.524,0 2.76,1.236 2.76,2.76 0,1.524 -1.236,2.76 -2.76,2.76 -1.524,0 -2.76,-1.236 -2.76,-2.76"
       style="fill:#000000;fill-opacity:1;fill-rule:nonzero;stroke:none"
       id="path426"
       inkscape:connector-curvature="0" /><path
       d="m 239.34034,621.92576 c 0,-1.126 0.914,-2.04 2.04,-2.04 1.126,0 2.04,0.914 2.04,2.04 0,1.126 -0.914,2.04 -2.04,2.04 -1.126,0 -2.04,-0.914 -2.04,-2.04"
       style="fill:#000000;fill-opacity:1;fill-rule:nonzero;stroke:none"
       id="path428"
       inkscape:connector-curvature="0" /><path
       d="m 223.02034,771.44576 c 0,-1.126 0.914,-2.04 2.04,-2.04 1.126,0 2.04,0.914 2.04,2.04 0,1.126 -0.914,2.04 -2.04,2.04 -1.126,0 -2.04,-0.914 -2.04,-2.04"
       style="fill:#000000;fill-opacity:1;fill-rule:nonzero;stroke:none"
       id="path430"
       inkscape:connector-curvature="0" /><path
       d="m 248.22034,753.44576 c 0,-1.126 0.914,-2.04 2.04,-2.04 1.126,0 2.04,0.914 2.04,2.04 0,1.126 -0.914,2.04 -2.04,2.04 -1.126,0 -2.04,-0.914 -2.04,-2.04"
       style="fill:#000000;fill-opacity:1;fill-rule:nonzero;stroke:none"
       id="path432"
       inkscape:connector-curvature="0" /><path
       d="m 248.22034,724.64576 c 0,-1.126 0.914,-2.04 2.04,-2.04 1.126,0 2.04,0.914 2.04,2.04 0,1.126 -0.914,2.04 -2.04,2.04 -1.126,0 -2.04,-0.914 -2.04,-2.04"
       style="fill:#000000;fill-opacity:1;fill-rule:nonzero;stroke:none"
       id="path434"
       inkscape:connector-curvature="0" /><path
       d="m 181.74034,621.92576 c 0,-1.126 0.914,-2.04 2.04,-2.04 1.126,0 2.04,0.914 2.04,2.04 0,1.126 -0.914,2.04 -2.04,2.04 -1.126,0 -2.04,-0.914 -2.04,-2.04"
       style="fill:#000000;fill-opacity:1;fill-rule:nonzero;stroke:none"
       id="path436"
       inkscape:connector-curvature="0" /><path
       d="m 181.74034,607.52576 c 0,-1.126 0.914,-2.04 2.04,-2.04 1.126,0 2.04,0.914 2.04,2.04 0,1.126 -0.914,2.04 -2.04,2.04 -1.126,0 -2.04,-0.914 -2.04,-2.04"
       style="fill:#000000;fill-opacity:1;fill-rule:nonzero;stroke:none"
       id="path438"
       inkscape:connector-curvature="0" /><path
       d="m 181.74034,593.18576 c 0,-1.126 0.914,-2.04 2.04,-2.04 1.126,0 2.04,0.914 2.04,2.04 0,1.126 -0.914,2.04 -2.04,2.04 -1.126,0 -2.04,-0.914 -2.04,-2.04"
       style="fill:#000000;fill-opacity:1;fill-rule:nonzero;stroke:none"
       id="path440"
       inkscape:connector-curvature="0" /><path
       d="m 196.14034,578.78576 c 0,-1.126 0.914,-2.04 2.04,-2.04 1.126,0 2.04,0.914 2.04,2.04 0,1.126 -0.914,2.04 -2.04,2.04 -1.126,0 -2.04,-0.914 -2.04,-2.04"
       style="fill:#000000;fill-opacity:1;fill-rule:nonzero;stroke:none"
       id="path442"
       inkscape:connector-curvature="0" /><path
       d="m 196.14034,564.38576 c 0,-1.126 0.914,-2.04 2.04,-2.04 1.126,0 2.04,0.914 2.04,2.04 0,1.126 -0.914,2.04 -2.04,2.04 -1.126,0 -2.04,-0.914 -2.04,-2.04"
       style="fill:#000000;fill-opacity:1;fill-rule:nonzero;stroke:none"
       id="path444"
       inkscape:connector-curvature="0" /><path
       d="m 224.94034,621.92576 c 0,-1.126 0.914,-2.04 2.04,-2.04 1.126,0 2.04,0.914 2.04,2.04 0,1.126 -0.914,2.04 -2.04,2.04 -1.126,0 -2.04,-0.914 -2.04,-2.04"
       style="fill:#000000;fill-opacity:1;fill-rule:nonzero;stroke:none"
       id="path446"
       inkscape:connector-curvature="0" /><path
       d="m 210.54034,607.52576 c 0,-1.126 0.914,-2.04 2.04,-2.04 1.126,0 2.04,0.914 2.04,2.04 0,1.126 -0.914,2.04 -2.04,2.04 -1.126,0 -2.04,-0.914 -2.04,-2.04"
       style="fill:#000000;fill-opacity:1;fill-rule:nonzero;stroke:none"
       id="path448"
       inkscape:connector-curvature="0" /><path
       d="m 239.34034,593.18576 c 0,-1.126 0.914,-2.04 2.04,-2.04 1.126,0 2.04,0.914 2.04,2.04 0,1.126 -0.914,2.04 -2.04,2.04 -1.126,0 -2.04,-0.914 -2.04,-2.04"
       style="fill:#000000;fill-opacity:1;fill-rule:nonzero;stroke:none"
       id="path450"
       inkscape:connector-curvature="0" /><path
       d="m 181.74034,578.78576 c 0,-1.126 0.914,-2.04 2.04,-2.04 1.126,0 2.04,0.914 2.04,2.04 0,1.126 -0.914,2.04 -2.04,2.04 -1.126,0 -2.04,-0.914 -2.04,-2.04"
       style="fill:#000000;fill-opacity:1;fill-rule:nonzero;stroke:none"
       id="path452"
       inkscape:connector-curvature="0" /><path
       d="m 224.94034,564.38576 c 0,-1.126 0.914,-2.04 2.04,-2.04 1.126,0 2.04,0.914 2.04,2.04 0,1.126 -0.914,2.04 -2.04,2.04 -1.126,0 -2.04,-0.914 -2.04,-2.04"
       style="fill:#000000;fill-opacity:1;fill-rule:nonzero;stroke:none"
       id="path454"
       inkscape:connector-curvature="0" /><path
       d="m 210.54034,564.38576 c 0,-1.126 0.914,-2.04 2.04,-2.04 1.126,0 2.04,0.914 2.04,2.04 0,1.126 -0.914,2.04 -2.04,2.04 -1.126,0 -2.04,-0.914 -2.04,-2.04"
       style="fill:#000000;fill-opacity:1;fill-rule:nonzero;stroke:none"
       id="path456"
       inkscape:connector-curvature="0" /><path
       d="m 239.34034,564.38576 c 0,-1.126 0.914,-2.04 2.04,-2.04 1.126,0 2.04,0.914 2.04,2.04 0,1.126 -0.914,2.04 -2.04,2.04 -1.126,0 -2.04,-0.914 -2.04,-2.04"
       style="fill:#000000;fill-opacity:1;fill-rule:nonzero;stroke:none"
       id="path458"
       inkscape:connector-curvature="0" /><path
       d="m 181.74034,564.38576 c 0,-1.126 0.914,-2.04 2.04,-2.04 1.126,0 2.04,0.914 2.04,2.04 0,1.126 -0.914,2.04 -2.04,2.04 -1.126,0 -2.04,-0.914 -2.04,-2.04"
       style="fill:#000000;fill-opacity:1;fill-rule:nonzero;stroke:none"
       id="path460"
       inkscape:connector-curvature="0" /><path
       d="m 253.74034,593.18576 c 0,-1.126 0.914,-2.04 2.04,-2.04 1.126,0 2.04,0.914 2.04,2.04 0,1.126 -0.914,2.04 -2.04,2.04 -1.126,0 -2.04,-0.914 -2.04,-2.04"
       style="fill:#000000;fill-opacity:1;fill-rule:nonzero;stroke:none"
       id="path462"
       inkscape:connector-curvature="0" /><path
       d="m 210.54034,621.92576 c 0,-1.126 0.914,-2.04 2.04,-2.04 1.126,0 2.04,0.914 2.04,2.04 0,1.126 -0.914,2.04 -2.04,2.04 -1.126,0 -2.04,-0.914 -2.04,-2.04"
       style="fill:#000000;fill-opacity:1;fill-rule:nonzero;stroke:none"
       id="path464"
       inkscape:connector-curvature="0" /><path
       d="m 224.94034,607.52576 c 0,-1.126 0.914,-2.04 2.04,-2.04 1.126,0 2.04,0.914 2.04,2.04 0,1.126 -0.914,2.04 -2.04,2.04 -1.126,0 -2.04,-0.914 -2.04,-2.04"
       style="fill:#000000;fill-opacity:1;fill-rule:nonzero;stroke:none"
       id="path466"
       inkscape:connector-curvature="0" /><path
       d="m 239.34034,607.52576 c 0,-1.126 0.914,-2.04 2.04,-2.04 1.126,0 2.04,0.914 2.04,2.04 0,1.126 -0.914,2.04 -2.04,2.04 -1.126,0 -2.04,-0.914 -2.04,-2.04"
       style="fill:#000000;fill-opacity:1;fill-rule:nonzero;stroke:none"
       id="path468"
       inkscape:connector-curvature="0" /><path
       d="m 196.14034,607.52576 c 0,-1.126 0.914,-2.04 2.04,-2.04 1.126,0 2.04,0.914 2.04,2.04 0,1.126 -0.914,2.04 -2.04,2.04 -1.126,0 -2.04,-0.914 -2.04,-2.04"
       style="fill:#000000;fill-opacity:1;fill-rule:nonzero;stroke:none"
       id="path470"
       inkscape:connector-curvature="0" /><path
       d="m 196.14034,593.18576 c 0,-1.126 0.914,-2.04 2.04,-2.04 1.126,0 2.04,0.914 2.04,2.04 0,1.126 -0.914,2.04 -2.04,2.04 -1.126,0 -2.04,-0.914 -2.04,-2.04"
       style="fill:#000000;fill-opacity:1;fill-rule:nonzero;stroke:none"
       id="path472"
       inkscape:connector-curvature="0" /><path
       d="m 224.94034,593.18576 c 0,-1.126 0.914,-2.04 2.04,-2.04 1.126,0 2.04,0.914 2.04,2.04 0,1.126 -0.914,2.04 -2.04,2.04 -1.126,0 -2.04,-0.914 -2.04,-2.04"
       style="fill:#000000;fill-opacity:1;fill-rule:nonzero;stroke:none"
       id="path474"
       inkscape:connector-curvature="0" /><path
       d="m 210.54034,593.18576 c 0,-1.126 0.914,-2.04 2.04,-2.04 1.126,0 2.04,0.914 2.04,2.04 0,1.126 -0.914,2.04 -2.04,2.04 -1.126,0 -2.04,-0.914 -2.04,-2.04"
       style="fill:#000000;fill-opacity:1;fill-rule:nonzero;stroke:none"
       id="path476"
       inkscape:connector-curvature="0" /><path
       d="m 239.34034,578.78576 c 0,-1.126 0.914,-2.04 2.04,-2.04 1.126,0 2.04,0.914 2.04,2.04 0,1.126 -0.914,2.04 -2.04,2.04 -1.126,0 -2.04,-0.914 -2.04,-2.04"
       style="fill:#000000;fill-opacity:1;fill-rule:nonzero;stroke:none"
       id="path478"
       inkscape:connector-curvature="0" /><path
       d="m 224.94034,578.78576 c 0,-1.126 0.914,-2.04 2.04,-2.04 1.126,0 2.04,0.914 2.04,2.04 0,1.126 -0.914,2.04 -2.04,2.04 -1.126,0 -2.04,-0.914 -2.04,-2.04"
       style="fill:#000000;fill-opacity:1;fill-rule:nonzero;stroke:none"
       id="path480"
       inkscape:connector-curvature="0" /><path
       d="m 210.54034,578.78576 c 0,-1.126 0.914,-2.04 2.04,-2.04 1.126,0 2.04,0.914 2.04,2.04 0,1.126 -0.914,2.04 -2.04,2.04 -1.126,0 -2.04,-0.914 -2.04,-2.04"
       style="fill:#000000;fill-opacity:1;fill-rule:nonzero;stroke:none"
       id="path482"
       inkscape:connector-curvature="0" /><path
       d="m 253.74034,564.38576 c 0,-1.126 0.914,-2.04 2.04,-2.04 1.126,0 2.04,0.914 2.04,2.04 0,1.126 -0.914,2.04 -2.04,2.04 -1.126,0 -2.04,-0.914 -2.04,-2.04"
       style="fill:#000000;fill-opacity:1;fill-rule:nonzero;stroke:none"
       id="path484"
       inkscape:connector-curvature="0" /><path
       d="m 253.74034,607.52576 c 0,-1.126 0.914,-2.04 2.04,-2.04 1.126,0 2.04,0.914 2.04,2.04 0,1.126 -0.914,2.04 -2.04,2.04 -1.126,0 -2.04,-0.914 -2.04,-2.04"
       style="fill:#000000;fill-opacity:1;fill-rule:nonzero;stroke:none"
       id="path486"
       inkscape:connector-curvature="0" /><path
       d="m 253.74034,578.78576 c 0,-1.126 0.914,-2.04 2.04,-2.04 1.126,0 2.04,0.914 2.04,2.04 0,1.126 -0.914,2.04 -2.04,2.04 -1.126,0 -2.04,-0.914 -2.04,-2.04"
       style="fill:#000000;fill-opacity:1;fill-rule:nonzero;stroke:none"
       id="path488"
       inkscape:connector-curvature="0" /><path
       d="m 196.86034,621.92576 c 0,-0.729 0.591,-1.32 1.32,-1.32 0.729,0 1.32,0.591 1.32,1.32 0,0.729 -0.591,1.32 -1.32,1.32 -0.729,0 -1.32,-0.591 -1.32,-1.32"
       style="fill:#ffffff;fill-opacity:1;fill-rule:nonzero;stroke:none"
       id="path490"
       inkscape:connector-curvature="0" /><path
       d="m 254.46034,621.92576 c 0,-0.729 0.591,-1.32 1.32,-1.32 0.729,0 1.32,0.591 1.32,1.32 0,0.729 -0.591,1.32 -1.32,1.32 -0.729,0 -1.32,-0.591 -1.32,-1.32"
       style="fill:#ffffff;fill-opacity:1;fill-rule:nonzero;stroke:none"
       id="path492"
       inkscape:connector-curvature="0" /><path
       d="m 238.14034,771.44576 c 0,-0.729 0.591,-1.32 1.32,-1.32 0.729,0 1.32,0.591 1.32,1.32 0,0.729 -0.591,1.32 -1.32,1.32 -0.729,0 -1.32,-0.591 -1.32,-1.32"
       style="fill:#ffffff;fill-opacity:1;fill-rule:nonzero;stroke:none"
       id="path494"
       inkscape:connector-curvature="0" /><path
       d="m 230.94034,778.64576 c 0,-0.729 0.591,-1.32 1.32,-1.32 0.729,0 1.32,0.591 1.32,1.32 0,0.729 -0.591,1.32 -1.32,1.32 -0.729,0 -1.32,-0.591 -1.32,-1.32"
       style="fill:#ffffff;fill-opacity:1;fill-rule:nonzero;stroke:none"
       id="path496"
       inkscape:connector-curvature="0" /><path
       d="m 232.86034,641.84576 c 0,-0.729 0.591,-1.32 1.32,-1.32 0.729,0 1.32,0.591 1.32,1.32 0,0.729 -0.591,1.32 -1.32,1.32 -0.729,0 -1.32,-0.591 -1.32,-1.32"
       style="fill:#ffffff;fill-opacity:1;fill-rule:nonzero;stroke:none"
       id="path498"
       inkscape:connector-curvature="0" /><path
       d="m 232.86034,649.04576 c 0,-0.729 0.591,-1.32 1.32,-1.32 0.729,0 1.32,0.591 1.32,1.32 0,0.729 -0.591,1.32 -1.32,1.32 -0.729,0 -1.32,-0.591 -1.32,-1.32"
       style="fill:#ffffff;fill-opacity:1;fill-rule:nonzero;stroke:none"
       id="path500"
       inkscape:connector-curvature="0" /><path
       d="m 232.86034,656.24576 c 0,-0.729 0.591,-1.32 1.32,-1.32 0.729,0 1.32,0.591 1.32,1.32 0,0.729 -0.591,1.32 -1.32,1.32 -0.729,0 -1.32,-0.591 -1.32,-1.32"
       style="fill:#ffffff;fill-opacity:1;fill-rule:nonzero;stroke:none"
       id="path502"
       inkscape:connector-curvature="0" /><path
       d="m 232.86034,663.44576 c 0,-0.729 0.591,-1.32 1.32,-1.32 0.729,0 1.32,0.591 1.32,1.32 0,0.729 -0.591,1.32 -1.32,1.32 -0.729,0 -1.32,-0.591 -1.32,-1.32"
       style="fill:#ffffff;fill-opacity:1;fill-rule:nonzero;stroke:none"
       id="path504"
       inkscape:connector-curvature="0" /><path
       d="m 232.86034,670.64576 c 0,-0.729 0.591,-1.32 1.32,-1.32 0.729,0 1.32,0.591 1.32,1.32 0,0.729 -0.591,1.32 -1.32,1.32 -0.729,0 -1.32,-0.591 -1.32,-1.32"
       style="fill:#ffffff;fill-opacity:1;fill-rule:nonzero;stroke:none"
       id="path506"
       inkscape:connector-curvature="0" /><path
       d="m 232.86034,677.84576 c 0,-0.729 0.591,-1.32 1.32,-1.32 0.729,0 1.32,0.591 1.32,1.32 0,0.729 -0.591,1.32 -1.32,1.32 -0.729,0 -1.32,-0.591 -1.32,-1.32"
       style="fill:#ffffff;fill-opacity:1;fill-rule:nonzero;stroke:none"
       id="path508"
       inkscape:connector-curvature="0" /><path
       d="m 232.86034,685.04576 c 0,-0.729 0.591,-1.32 1.32,-1.32 0.729,0 1.32,0.591 1.32,1.32 0,0.729 -0.591,1.32 -1.32,1.32 -0.729,0 -1.32,-0.591 -1.32,-1.32"
       style="fill:#ffffff;fill-opacity:1;fill-rule:nonzero;stroke:none"
       id="path510"
       inkscape:connector-curvature="0" /><path
       d="m 232.86034,692.24576 c 0,-0.729 0.591,-1.32 1.32,-1.32 0.729,0 1.32,0.591 1.32,1.32 0,0.729 -0.591,1.32 -1.32,1.32 -0.729,0 -1.32,-0.591 -1.32,-1.32"
       style="fill:#ffffff;fill-opacity:1;fill-rule:nonzero;stroke:none"
       id="path512"
       inkscape:connector-curvature="0" /><path
       d="m 232.86034,699.44576 c 0,-0.729 0.591,-1.32 1.32,-1.32 0.729,0 1.32,0.591 1.32,1.32 0,0.729 -0.591,1.32 -1.32,1.32 -0.729,0 -1.32,-0.591 -1.32,-1.32"
       style="fill:#ffffff;fill-opacity:1;fill-rule:nonzero;stroke:none"
       id="path514"
       inkscape:connector-curvature="0" /><path
       d="m 232.86034,706.64576 c 0,-0.729 0.591,-1.32 1.32,-1.32 0.729,0 1.32,0.591 1.32,1.32 0,0.729 -0.591,1.32 -1.32,1.32 -0.729,0 -1.32,-0.591 -1.32,-1.32"
       style="fill:#ffffff;fill-opacity:1;fill-rule:nonzero;stroke:none"
       id="path516"
       inkscape:connector-curvature="0" /><path
       d="m 189.66034,641.84576 c 0,-0.729 0.591,-1.32 1.32,-1.32 0.729,0 1.32,0.591 1.32,1.32 0,0.729 -0.591,1.32 -1.32,1.32 -0.729,0 -1.32,-0.591 -1.32,-1.32"
       style="fill:#ffffff;fill-opacity:1;fill-rule:nonzero;stroke:none"
       id="path518"
       inkscape:connector-curvature="0" /><path
       d="m 189.66034,649.04576 c 0,-0.729 0.591,-1.32 1.32,-1.32 0.729,0 1.32,0.591 1.32,1.32 0,0.729 -0.591,1.32 -1.32,1.32 -0.729,0 -1.32,-0.591 -1.32,-1.32"
       style="fill:#ffffff;fill-opacity:1;fill-rule:nonzero;stroke:none"
       id="path520"
       inkscape:connector-curvature="0" /><path
       d="m 189.66034,656.24576 c 0,-0.729 0.591,-1.32 1.32,-1.32 0.729,0 1.32,0.591 1.32,1.32 0,0.729 -0.591,1.32 -1.32,1.32 -0.729,0 -1.32,-0.591 -1.32,-1.32"
       style="fill:#ffffff;fill-opacity:1;fill-rule:nonzero;stroke:none"
       id="path522"
       inkscape:connector-curvature="0" /><path
       d="m 189.66034,663.44576 c 0,-0.729 0.591,-1.32 1.32,-1.32 0.729,0 1.32,0.591 1.32,1.32 0,0.729 -0.591,1.32 -1.32,1.32 -0.729,0 -1.32,-0.591 -1.32,-1.32"
       style="fill:#ffffff;fill-opacity:1;fill-rule:nonzero;stroke:none"
       id="path524"
       inkscape:connector-curvature="0" /><path
       d="m 189.66034,670.64576 c 0,-0.729 0.591,-1.32 1.32,-1.32 0.729,0 1.32,0.591 1.32,1.32 0,0.729 -0.591,1.32 -1.32,1.32 -0.729,0 -1.32,-0.591 -1.32,-1.32"
       style="fill:#ffffff;fill-opacity:1;fill-rule:nonzero;stroke:none"
       id="path526"
       inkscape:connector-curvature="0" /><path
       d="m 189.66034,677.84576 c 0,-0.729 0.591,-1.32 1.32,-1.32 0.729,0 1.32,0.591 1.32,1.32 0,0.729 -0.591,1.32 -1.32,1.32 -0.729,0 -1.32,-0.591 -1.32,-1.32"
       style="fill:#ffffff;fill-opacity:1;fill-rule:nonzero;stroke:none"
       id="path528"
       inkscape:connector-curvature="0" /><path
       d="m 189.66034,685.04576 c 0,-0.729 0.591,-1.32 1.32,-1.32 0.729,0 1.32,0.591 1.32,1.32 0,0.729 -0.591,1.32 -1.32,1.32 -0.729,0 -1.32,-0.591 -1.32,-1.32"
       style="fill:#ffffff;fill-opacity:1;fill-rule:nonzero;stroke:none"
       id="path530"
       inkscape:connector-curvature="0" /><path
       d="m 189.66034,692.24576 c 0,-0.729 0.591,-1.32 1.32,-1.32 0.729,0 1.32,0.591 1.32,1.32 0,0.729 -0.591,1.32 -1.32,1.32 -0.729,0 -1.32,-0.591 -1.32,-1.32"
       style="fill:#ffffff;fill-opacity:1;fill-rule:nonzero;stroke:none"
       id="path532"
       inkscape:connector-curvature="0" /><path
       d="m 189.66034,699.44576 c 0,-0.729 0.591,-1.32 1.32,-1.32 0.729,0 1.32,0.591 1.32,1.32 0,0.729 -0.591,1.32 -1.32,1.32 -0.729,0 -1.32,-0.591 -1.32,-1.32"
       style="fill:#ffffff;fill-opacity:1;fill-rule:nonzero;stroke:none"
       id="path534"
       inkscape:connector-curvature="0" /><path
       d="m 189.66034,706.64576 c 0,-0.729 0.591,-1.32 1.32,-1.32 0.729,0 1.32,0.591 1.32,1.32 0,0.729 -0.591,1.32 -1.32,1.32 -0.729,0 -1.32,-0.591 -1.32,-1.32"
       style="fill:#ffffff;fill-opacity:1;fill-rule:nonzero;stroke:none"
       id="path536"
       inkscape:connector-curvature="0" /><path
       d="m 232.86034,713.84576 c 0,-0.729 0.591,-1.32 1.32,-1.32 0.729,0 1.32,0.591 1.32,1.32 0,0.729 -0.591,1.32 -1.32,1.32 -0.729,0 -1.32,-0.591 -1.32,-1.32"
       style="fill:#ffffff;fill-opacity:1;fill-rule:nonzero;stroke:none"
       id="path538"
       inkscape:connector-curvature="0" /><path
       d="m 232.86034,721.04576 c 0,-0.729 0.591,-1.32 1.32,-1.32 0.729,0 1.32,0.591 1.32,1.32 0,0.729 -0.591,1.32 -1.32,1.32 -0.729,0 -1.32,-0.591 -1.32,-1.32"
       style="fill:#ffffff;fill-opacity:1;fill-rule:nonzero;stroke:none"
       id="path540"
       inkscape:connector-curvature="0" /><path
       d="m 232.86034,728.24576 c 0,-0.729 0.591,-1.32 1.32,-1.32 0.729,0 1.32,0.591 1.32,1.32 0,0.729 -0.591,1.32 -1.32,1.32 -0.729,0 -1.32,-0.591 -1.32,-1.32"
       style="fill:#ffffff;fill-opacity:1;fill-rule:nonzero;stroke:none"
       id="path542"
       inkscape:connector-curvature="0" /><path
       d="m 232.86034,735.44576 c 0,-0.729 0.591,-1.32 1.32,-1.32 0.729,0 1.32,0.591 1.32,1.32 0,0.729 -0.591,1.32 -1.32,1.32 -0.729,0 -1.32,-0.591 -1.32,-1.32"
       style="fill:#ffffff;fill-opacity:1;fill-rule:nonzero;stroke:none"
       id="path544"
       inkscape:connector-curvature="0" /><path
       d="m 232.86034,742.64576 c 0,-0.729 0.591,-1.32 1.32,-1.32 0.729,0 1.32,0.591 1.32,1.32 0,0.729 -0.591,1.32 -1.32,1.32 -0.729,0 -1.32,-0.591 -1.32,-1.32"
       style="fill:#ffffff;fill-opacity:1;fill-rule:nonzero;stroke:none"
       id="path546"
       inkscape:connector-curvature="0" /><path
       d="m 189.66034,713.84576 c 0,-0.729 0.591,-1.32 1.32,-1.32 0.729,0 1.32,0.591 1.32,1.32 0,0.729 -0.591,1.32 -1.32,1.32 -0.729,0 -1.32,-0.591 -1.32,-1.32"
       style="fill:#ffffff;fill-opacity:1;fill-rule:nonzero;stroke:none"
       id="path548"
       inkscape:connector-curvature="0" /><path
       d="m 189.66034,721.04576 c 0,-0.729 0.591,-1.32 1.32,-1.32 0.729,0 1.32,0.591 1.32,1.32 0,0.729 -0.591,1.32 -1.32,1.32 -0.729,0 -1.32,-0.591 -1.32,-1.32"
       style="fill:#ffffff;fill-opacity:1;fill-rule:nonzero;stroke:none"
       id="path550"
       inkscape:connector-curvature="0" /><path
       d="m 189.66034,728.24576 c 0,-0.729 0.591,-1.32 1.32,-1.32 0.729,0 1.32,0.591 1.32,1.32 0,0.729 -0.591,1.32 -1.32,1.32 -0.729,0 -1.32,-0.591 -1.32,-1.32"
       style="fill:#ffffff;fill-opacity:1;fill-rule:nonzero;stroke:none"
       id="path552"
       inkscape:connector-curvature="0" /><path
       d="m 189.66034,735.44576 c 0,-0.729 0.591,-1.32 1.32,-1.32 0.729,0 1.32,0.591 1.32,1.32 0,0.729 -0.591,1.32 -1.32,1.32 -0.729,0 -1.32,-0.591 -1.32,-1.32"
       style="fill:#ffffff;fill-opacity:1;fill-rule:nonzero;stroke:none"
       id="path554"
       inkscape:connector-curvature="0" /><path
       d="m 189.66034,742.64576 c 0,-0.729 0.591,-1.32 1.32,-1.32 0.729,0 1.32,0.591 1.32,1.32 0,0.729 -0.591,1.32 -1.32,1.32 -0.729,0 -1.32,-0.591 -1.32,-1.32"
       style="fill:#ffffff;fill-opacity:1;fill-rule:nonzero;stroke:none"
       id="path556"
       inkscape:connector-curvature="0" /><path
       d="m 255.90034,782.24576 c 0,-0.861 0.699,-1.56 1.56,-1.56 0.861,0 1.56,0.699 1.56,1.56 0,0.861 -0.699,1.56 -1.56,1.56 -0.861,0 -1.56,-0.699 -1.56,-1.56"
       style="fill:#ffffff;fill-opacity:1;fill-rule:nonzero;stroke:none"
       id="path558"
       inkscape:connector-curvature="0" /><path
       d="m 248.70034,782.24576 c 0,-0.861 0.699,-1.56 1.56,-1.56 0.861,0 1.56,0.699 1.56,1.56 0,0.861 -0.699,1.56 -1.56,1.56 -0.861,0 -1.56,-0.699 -1.56,-1.56"
       style="fill:#ffffff;fill-opacity:1;fill-rule:nonzero;stroke:none"
       id="path560"
       inkscape:connector-curvature="0" /><path
       d="m 212.70034,782.24576 c 0,-0.861 0.699,-1.56 1.56,-1.56 0.861,0 1.56,0.699 1.56,1.56 0,0.861 -0.699,1.56 -1.56,1.56 -0.861,0 -1.56,-0.699 -1.56,-1.56"
       style="fill:#ffffff;fill-opacity:1;fill-rule:nonzero;stroke:none"
       id="path562"
       inkscape:connector-curvature="0" /><path
       d="m 205.50034,782.24576 c 0,-0.861 0.699,-1.56 1.56,-1.56 0.861,0 1.56,0.699 1.56,1.56 0,0.861 -0.699,1.56 -1.56,1.56 -0.861,0 -1.56,-0.699 -1.56,-1.56"
       style="fill:#ffffff;fill-opacity:1;fill-rule:nonzero;stroke:none"
       id="path564"
       inkscape:connector-curvature="0" /><path
       d="m 56.220339,782.24576 c 0,-0.861 0.699,-1.56 1.56,-1.56 0.861,0 1.56,0.699 1.56,1.56 0,0.861 -0.699,1.56 -1.56,1.56 -0.861,0 -1.56,-0.699 -1.56,-1.56"
       style="fill:#ffffff;fill-opacity:1;fill-rule:nonzero;stroke:none"
       id="path566"
       inkscape:connector-curvature="0" /><path
       d="m 49.020339,782.24576 c 0,-0.861 0.699,-1.56 1.56,-1.56 0.861,0 1.56,0.699 1.56,1.56 0,0.861 -0.699,1.56 -1.56,1.56 -0.861,0 -1.56,-0.699 -1.56,-1.56"
       style="fill:#ffffff;fill-opacity:1;fill-rule:nonzero;stroke:none"
       id="path568"
       inkscape:connector-curvature="0" /><path
       d="m 49.020339,699.44576 c 0,-0.861 0.699,-1.56 1.56,-1.56 0.861,0 1.56,0.699 1.56,1.56 0,0.861 -0.699,1.56 -1.56,1.56 -0.861,0 -1.56,-0.699 -1.56,-1.56"
       style="fill:#ffffff;fill-opacity:1;fill-rule:nonzero;stroke:none"
       id="path570"
       inkscape:connector-curvature="0" /><path
       d="m 49.020339,692.24576 c 0,-0.861 0.699,-1.56 1.56,-1.56 0.861,0 1.56,0.699 1.56,1.56 0,0.861 -0.699,1.56 -1.56,1.56 -0.861,0 -1.56,-0.699 -1.56,-1.56"
       style="fill:#ffffff;fill-opacity:1;fill-rule:nonzero;stroke:none"
       id="path572"
       inkscape:connector-curvature="0" /><path
       d="m 49.020339,685.04576 c 0,-0.861 0.699,-1.56 1.56,-1.56 0.861,0 1.56,0.699 1.56,1.56 0,0.861 -0.699,1.56 -1.56,1.56 -0.861,0 -1.56,-0.699 -1.56,-1.56"
       style="fill:#ffffff;fill-opacity:1;fill-rule:nonzero;stroke:none"
       id="path574"
       inkscape:connector-curvature="0" /><path
       d="m 49.020339,677.84576 c 0,-0.861 0.699,-1.56 1.56,-1.56 0.861,0 1.56,0.699 1.56,1.56 0,0.861 -0.699,1.56 -1.56,1.56 -0.861,0 -1.56,-0.699 -1.56,-1.56"
       style="fill:#ffffff;fill-opacity:1;fill-rule:nonzero;stroke:none"
       id="path576"
       inkscape:connector-curvature="0" /><path
       d="m 49.020339,670.64576 c 0,-0.861 0.699,-1.56 1.56,-1.56 0.861,0 1.56,0.699 1.56,1.56 0,0.861 -0.699,1.56 -1.56,1.56 -0.861,0 -1.56,-0.699 -1.56,-1.56"
       style="fill:#ffffff;fill-opacity:1;fill-rule:nonzero;stroke:none"
       id="path578"
       inkscape:connector-curvature="0" /><path
       d="m 49.020339,663.44576 c 0,-0.861 0.699,-1.56 1.56,-1.56 0.861,0 1.56,0.699 1.56,1.56 0,0.861 -0.699,1.56 -1.56,1.56 -0.861,0 -1.56,-0.699 -1.56,-1.56"
       style="fill:#ffffff;fill-opacity:1;fill-rule:nonzero;stroke:none"
       id="path580"
       inkscape:connector-curvature="0" /><path
       d="m 49.020339,656.24576 c 0,-0.861 0.699,-1.56 1.56,-1.56 0.861,0 1.56,0.699 1.56,1.56 0,0.861 -0.699,1.56 -1.56,1.56 -0.861,0 -1.56,-0.699 -1.56,-1.56"
       style="fill:#ffffff;fill-opacity:1;fill-rule:nonzero;stroke:none"
       id="path582"
       inkscape:connector-curvature="0" /><path
       d="m 49.020339,649.04576 c 0,-0.861 0.699,-1.56 1.56,-1.56 0.861,0 1.56,0.699 1.56,1.56 0,0.861 -0.699,1.56 -1.56,1.56 -0.861,0 -1.56,-0.699 -1.56,-1.56"
       style="fill:#ffffff;fill-opacity:1;fill-rule:nonzero;stroke:none"
       id="path584"
       inkscape:connector-curvature="0" /><path
       d="m 49.020339,641.84576 c 0,-0.861 0.699,-1.56 1.56,-1.56 0.861,0 1.56,0.699 1.56,1.56 0,0.861 -0.699,1.56 -1.56,1.56 -0.861,0 -1.56,-0.699 -1.56,-1.56"
       style="fill:#ffffff;fill-opacity:1;fill-rule:nonzero;stroke:none"
       id="path586"
       inkscape:connector-curvature="0" /><path
       d="m 49.020339,634.64576 c 0,-0.861 0.699,-1.56 1.56,-1.56 0.861,0 1.56,0.699 1.56,1.56 0,0.861 -0.699,1.56 -1.56,1.56 -0.861,0 -1.56,-0.699 -1.56,-1.56"
       style="fill:#ffffff;fill-opacity:1;fill-rule:nonzero;stroke:none"
       id="path588"
       inkscape:connector-curvature="0" /><path
       d="m 240.06034,621.92576 c 0,-0.729 0.591,-1.32 1.32,-1.32 0.729,0 1.32,0.591 1.32,1.32 0,0.729 -0.591,1.32 -1.32,1.32 -0.729,0 -1.32,-0.591 -1.32,-1.32"
       style="fill:#ffffff;fill-opacity:1;fill-rule:nonzero;stroke:none"
       id="path590"
       inkscape:connector-curvature="0" /><path
       d="m 223.74034,771.44576 c 0,-0.729 0.591,-1.32 1.32,-1.32 0.729,0 1.32,0.591 1.32,1.32 0,0.729 -0.591,1.32 -1.32,1.32 -0.729,0 -1.32,-0.591 -1.32,-1.32"
       style="fill:#ffffff;fill-opacity:1;fill-rule:nonzero;stroke:none"
       id="path592"
       inkscape:connector-curvature="0" /><path
       d="m 248.94034,753.44576 c 0,-0.729 0.591,-1.32 1.32,-1.32 0.729,0 1.32,0.591 1.32,1.32 0,0.729 -0.591,1.32 -1.32,1.32 -0.729,0 -1.32,-0.591 -1.32,-1.32"
       style="fill:#ffffff;fill-opacity:1;fill-rule:nonzero;stroke:none"
       id="path594"
       inkscape:connector-curvature="0" /><path
       d="m 248.94034,724.64576 c 0,-0.729 0.591,-1.32 1.32,-1.32 0.729,0 1.32,0.591 1.32,1.32 0,0.729 -0.591,1.32 -1.32,1.32 -0.729,0 -1.32,-0.591 -1.32,-1.32"
       style="fill:#ffffff;fill-opacity:1;fill-rule:nonzero;stroke:none"
       id="path596"
       inkscape:connector-curvature="0" /><path
       d="m 182.46034,621.92576 c 0,-0.729 0.591,-1.32 1.32,-1.32 0.729,0 1.32,0.591 1.32,1.32 0,0.729 -0.591,1.32 -1.32,1.32 -0.729,0 -1.32,-0.591 -1.32,-1.32"
       style="fill:#ffffff;fill-opacity:1;fill-rule:nonzero;stroke:none"
       id="path598"
       inkscape:connector-curvature="0" /><path
       d="m 182.46034,607.52576 c 0,-0.729 0.591,-1.32 1.32,-1.32 0.729,0 1.32,0.591 1.32,1.32 0,0.729 -0.591,1.32 -1.32,1.32 -0.729,0 -1.32,-0.591 -1.32,-1.32"
       style="fill:#ffffff;fill-opacity:1;fill-rule:nonzero;stroke:none"
       id="path600"
       inkscape:connector-curvature="0" /><path
       d="m 182.46034,593.18576 c 0,-0.729 0.591,-1.32 1.32,-1.32 0.729,0 1.32,0.591 1.32,1.32 0,0.729 -0.591,1.32 -1.32,1.32 -0.729,0 -1.32,-0.591 -1.32,-1.32"
       style="fill:#ffffff;fill-opacity:1;fill-rule:nonzero;stroke:none"
       id="path602"
       inkscape:connector-curvature="0" /><path
       d="m 196.86034,578.78576 c 0,-0.729 0.591,-1.32 1.32,-1.32 0.729,0 1.32,0.591 1.32,1.32 0,0.729 -0.591,1.32 -1.32,1.32 -0.729,0 -1.32,-0.591 -1.32,-1.32"
       style="fill:#ffffff;fill-opacity:1;fill-rule:nonzero;stroke:none"
       id="path604"
       inkscape:connector-curvature="0" /><path
       d="m 196.86034,564.38576 c 0,-0.729 0.591,-1.32 1.32,-1.32 0.729,0 1.32,0.591 1.32,1.32 0,0.729 -0.591,1.32 -1.32,1.32 -0.729,0 -1.32,-0.591 -1.32,-1.32"
       style="fill:#ffffff;fill-opacity:1;fill-rule:nonzero;stroke:none"
       id="path606"
       inkscape:connector-curvature="0" /><path
       d="m 225.66034,621.92576 c 0,-0.729 0.591,-1.32 1.32,-1.32 0.729,0 1.32,0.591 1.32,1.32 0,0.729 -0.591,1.32 -1.32,1.32 -0.729,0 -1.32,-0.591 -1.32,-1.32"
       style="fill:#ffffff;fill-opacity:1;fill-rule:nonzero;stroke:none"
       id="path608"
       inkscape:connector-curvature="0" /><path
       d="m 211.26034,607.52576 c 0,-0.729 0.591,-1.32 1.32,-1.32 0.729,0 1.32,0.591 1.32,1.32 0,0.729 -0.591,1.32 -1.32,1.32 -0.729,0 -1.32,-0.591 -1.32,-1.32"
       style="fill:#ffffff;fill-opacity:1;fill-rule:nonzero;stroke:none"
       id="path610"
       inkscape:connector-curvature="0" /><path
       d="m 240.06034,593.18576 c 0,-0.729 0.591,-1.32 1.32,-1.32 0.729,0 1.32,0.591 1.32,1.32 0,0.729 -0.591,1.32 -1.32,1.32 -0.729,0 -1.32,-0.591 -1.32,-1.32"
       style="fill:#ffffff;fill-opacity:1;fill-rule:nonzero;stroke:none"
       id="path612"
       inkscape:connector-curvature="0" /><path
       d="m 182.46034,578.78576 c 0,-0.729 0.591,-1.32 1.32,-1.32 0.729,0 1.32,0.591 1.32,1.32 0,0.729 -0.591,1.32 -1.32,1.32 -0.729,0 -1.32,-0.591 -1.32,-1.32"
       style="fill:#ffffff;fill-opacity:1;fill-rule:nonzero;stroke:none"
       id="path614"
       inkscape:connector-curvature="0" /><path
       d="m 225.66034,564.38576 c 0,-0.729 0.591,-1.32 1.32,-1.32 0.729,0 1.32,0.591 1.32,1.32 0,0.729 -0.591,1.32 -1.32,1.32 -0.729,0 -1.32,-0.591 -1.32,-1.32"
       style="fill:#ffffff;fill-opacity:1;fill-rule:nonzero;stroke:none"
       id="path616"
       inkscape:connector-curvature="0" /><path
       d="m 211.26034,564.38576 c 0,-0.729 0.591,-1.32 1.32,-1.32 0.729,0 1.32,0.591 1.32,1.32 0,0.729 -0.591,1.32 -1.32,1.32 -0.729,0 -1.32,-0.591 -1.32,-1.32"
       style="fill:#ffffff;fill-opacity:1;fill-rule:nonzero;stroke:none"
       id="path618"
       inkscape:connector-curvature="0" /><path
       d="m 240.06034,564.38576 c 0,-0.729 0.591,-1.32 1.32,-1.32 0.729,0 1.32,0.591 1.32,1.32 0,0.729 -0.591,1.32 -1.32,1.32 -0.729,0 -1.32,-0.591 -1.32,-1.32"
       style="fill:#ffffff;fill-opacity:1;fill-rule:nonzero;stroke:none"
       id="path620"
       inkscape:connector-curvature="0" /><path
       d="m 182.46034,564.38576 c 0,-0.729 0.591,-1.32 1.32,-1.32 0.729,0 1.32,0.591 1.32,1.32 0,0.729 -0.591,1.32 -1.32,1.32 -0.729,0 -1.32,-0.591 -1.32,-1.32"
       style="fill:#ffffff;fill-opacity:1;fill-rule:nonzero;stroke:none"
       id="path622"
       inkscape:connector-curvature="0" /><path
       d="m 254.46034,593.18576 c 0,-0.729 0.591,-1.32 1.32,-1.32 0.729,0 1.32,0.591 1.32,1.32 0,0.729 -0.591,1.32 -1.32,1.32 -0.729,0 -1.32,-0.591 -1.32,-1.32"
       style="fill:#ffffff;fill-opacity:1;fill-rule:nonzero;stroke:none"
       id="path624"
       inkscape:connector-curvature="0" /><path
       d="m 211.26034,621.92576 c 0,-0.729 0.591,-1.32 1.32,-1.32 0.729,0 1.32,0.591 1.32,1.32 0,0.729 -0.591,1.32 -1.32,1.32 -0.729,0 -1.32,-0.591 -1.32,-1.32"
       style="fill:#ffffff;fill-opacity:1;fill-rule:nonzero;stroke:none"
       id="path626"
       inkscape:connector-curvature="0" /><path
       d="m 225.66034,607.52576 c 0,-0.729 0.591,-1.32 1.32,-1.32 0.729,0 1.32,0.591 1.32,1.32 0,0.729 -0.591,1.32 -1.32,1.32 -0.729,0 -1.32,-0.591 -1.32,-1.32"
       style="fill:#ffffff;fill-opacity:1;fill-rule:nonzero;stroke:none"
       id="path628"
       inkscape:connector-curvature="0" /><path
       d="m 240.06034,607.52576 c 0,-0.729 0.591,-1.32 1.32,-1.32 0.729,0 1.32,0.591 1.32,1.32 0,0.729 -0.591,1.32 -1.32,1.32 -0.729,0 -1.32,-0.591 -1.32,-1.32"
       style="fill:#ffffff;fill-opacity:1;fill-rule:nonzero;stroke:none"
       id="path630"
       inkscape:connector-curvature="0" /><path
       d="m 196.86034,607.52576 c 0,-0.729 0.591,-1.32 1.32,-1.32 0.729,0 1.32,0.591 1.32,1.32 0,0.729 -0.591,1.32 -1.32,1.32 -0.729,0 -1.32,-0.591 -1.32,-1.32"
       style="fill:#ffffff;fill-opacity:1;fill-rule:nonzero;stroke:none"
       id="path632"
       inkscape:connector-curvature="0" /><path
       d="m 196.86034,593.18576 c 0,-0.729 0.591,-1.32 1.32,-1.32 0.729,0 1.32,0.591 1.32,1.32 0,0.729 -0.591,1.32 -1.32,1.32 -0.729,0 -1.32,-0.591 -1.32,-1.32"
       style="fill:#ffffff;fill-opacity:1;fill-rule:nonzero;stroke:none"
       id="path634"
       inkscape:connector-curvature="0" /><path
       d="m 225.66034,593.18576 c 0,-0.729 0.591,-1.32 1.32,-1.32 0.729,0 1.32,0.591 1.32,1.32 0,0.729 -0.591,1.32 -1.32,1.32 -0.729,0 -1.32,-0.591 -1.32,-1.32"
       style="fill:#ffffff;fill-opacity:1;fill-rule:nonzero;stroke:none"
       id="path636"
       inkscape:connector-curvature="0" /><path
       d="m 211.26034,593.18576 c 0,-0.729 0.591,-1.32 1.32,-1.32 0.729,0 1.32,0.591 1.32,1.32 0,0.729 -0.591,1.32 -1.32,1.32 -0.729,0 -1.32,-0.591 -1.32,-1.32"
       style="fill:#ffffff;fill-opacity:1;fill-rule:nonzero;stroke:none"
       id="path638"
       inkscape:connector-curvature="0" /><path
       d="m 240.06034,578.78576 c 0,-0.729 0.591,-1.32 1.32,-1.32 0.729,0 1.32,0.591 1.32,1.32 0,0.729 -0.591,1.32 -1.32,1.32 -0.729,0 -1.32,-0.591 -1.32,-1.32"
       style="fill:#ffffff;fill-opacity:1;fill-rule:nonzero;stroke:none"
       id="path640"
       inkscape:connector-curvature="0" /><path
       d="m 225.66034,578.78576 c 0,-0.729 0.591,-1.32 1.32,-1.32 0.729,0 1.32,0.591 1.32,1.32 0,0.729 -0.591,1.32 -1.32,1.32 -0.729,0 -1.32,-0.591 -1.32,-1.32"
       style="fill:#ffffff;fill-opacity:1;fill-rule:nonzero;stroke:none"
       id="path642"
       inkscape:connector-curvature="0" /><path
       d="m 211.26034,578.78576 c 0,-0.729 0.591,-1.32 1.32,-1.32 0.729,0 1.32,0.591 1.32,1.32 0,0.729 -0.591,1.32 -1.32,1.32 -0.729,0 -1.32,-0.591 -1.32,-1.32"
       style="fill:#ffffff;fill-opacity:1;fill-rule:nonzero;stroke:none"
       id="path644"
       inkscape:connector-curvature="0" /><path
       d="m 254.46034,564.38576 c 0,-0.729 0.591,-1.32 1.32,-1.32 0.729,0 1.32,0.591 1.32,1.32 0,0.729 -0.591,1.32 -1.32,1.32 -0.729,0 -1.32,-0.591 -1.32,-1.32"
       style="fill:#ffffff;fill-opacity:1;fill-rule:nonzero;stroke:none"
       id="path646"
       inkscape:connector-curvature="0" /><path
       d="m 254.46034,607.52576 c 0,-0.729 0.591,-1.32 1.32,-1.32 0.729,0 1.32,0.591 1.32,1.32 0,0.729 -0.591,1.32 -1.32,1.32 -0.729,0 -1.32,-0.591 -1.32,-1.32"
       style="fill:#ffffff;fill-opacity:1;fill-rule:nonzero;stroke:none"
       id="path648"
       inkscape:connector-curvature="0" /><path
       d="m 254.46034,578.78576 c 0,-0.729 0.591,-1.32 1.32,-1.32 0.729,0 1.32,0.591 1.32,1.32 0,0.729 -0.591,1.32 -1.32,1.32 -0.729,0 -1.32,-0.591 -1.32,-1.32"
       style="fill:#ffffff;fill-opacity:1;fill-rule:nonzero;stroke:none"
       id="path650"
       inkscape:connector-curvature="0" /><path
       d="m 266.52034,796.70576 -230.400001,0 0,-252 230.400001,0 0,252 z"
       style="fill:none;stroke:#000000;stroke-width:0.23999999;stroke-linecap:round;stroke-linejoin:round;stroke-miterlimit:10;stroke-opacity:1;stroke-dasharray:none"
       id="path652"
       inkscape:connector-curvature="0" /></g></svg>